<?xml version="1.0" encoding="utf-8"?>
<!-- Generator: Adobe Illustrator 18.0.0, SVG Export Plug-In . SVG Version: 6.00 Build 0)  -->
<!DOCTYPE svg PUBLIC "-//W3C//DTD SVG 1.1//EN" "http://www.w3.org/Graphics/SVG/1.1/DTD/svg11.dtd">
<svg version="1.1" id="Layer_1" xmlns="http://www.w3.org/2000/svg" xmlns:xlink="http://www.w3.org/1999/xlink" x="0px" y="0px"
	 viewBox="0 0 1190.6 841.9" enable-background="new 0 0 1190.6 841.9" xml:space="preserve">
<g>
	<g>
		<path fill-rule="evenodd" clip-rule="evenodd" fill="#17793D" d="M709,295.1c6.6,0,13.3,0,19.9,0c3.1,0,3.7,0.6,3.8,3.7
			c0.1,3,0,6,0,9c0,3.6,0.5,4.1,4,4.3c9.6,0.5,19.1,0.1,28.7,0.2c1.8,0,2.7-0.9,3.5-2.3c3-5.1,7.7-7.6,13.5-7.8
			c4.9-0.2,8.7,2.1,11.3,6.1c1.7,2.6,3.7,3.9,6.8,3.9c10.2,0,20.4,0.2,30.6,0.3c1.2,0,2.4-0.3,3.5-0.4c2.6-0.2,3.3-1.4,2.5-3.7
			c-1.8-5.1-5.9-7.6-10.9-8c-4.1-0.3-8.2-0.4-12.3-0.5c-4.6-0.2-6.2-1.9-6.2-6.4c0-1.7-0.1-3.5,0.2-5.2c0.1-1,0.6-2.2,2-1.1
			c4.1,3.3,9.2,3.5,14,4.6c3.6,0.8,7.4,0.2,10.8,2.3c2.8,1.8,5.3,3.6,6.7,6.7c1,2.4,2.1,4.6,2.2,7.4c0,3.1,1.5,4.3,4.3,4.2
			c5.3-0.3,10.6-0.1,15.9-0.1c3.1,0,3.7-0.6,3.8-3.8c0.1-3.3,1.5-6.2,2.9-9.1c0.6-1.3,1.6-1.9,3-2.4c2.7-1,5.1-2.8,7.9-3.6
			c4.1-1.2,8.1-2.5,12-4.2c1.7-0.7,1.8,1.1,1.8,2.2c0,5.9,0,11.8,0,17.8c0,5.8,0,11.6-0.1,17.3c0,1.2-0.1,2.4-0.4,3.5
			c-0.2,1.2-1,1.6-2.2,1.7c-10,0-19.9,0.2-29.9,0.1c-4.3-0.1-8.7,0.1-13,0.3c-3.7,0.1-4.3,1.1-3,4.6c0.5,1.3,1,2.5,1.5,3.7
			c0.4,1.2,0,1.6-1.3,1.2c-2.7-0.8-4.2-2.9-5.3-5.1c-1.5-3.2-3.2-4.4-7.1-4.4c-6.2,0-12.5-0.2-18.7-0.1c-5.7,0.1-11.4,0.2-17.1-0.1
			c-1.7-0.1-2.7,0.8-3.4,2.1c-0.6,1.1-1.2,2.2-1.9,3.3c-2.8,4.4-7.2,4.4-11.7,4.7c-6.4,0.4-10.1-3.1-12.9-8.2
			c-0.6-1.1-1.2-2-2.7-1.9c-9.8,0-19.6,0-29.4,0.1c-3.4,0-3.7,0.5-3.8,3.9c-0.1,3.7-2.4,6.9-6.3,8.3c-1.9,0.7-3.7,1.3-5.2,2.7
			c-0.6,0.6-1.5,1-2.1,0.3c-2.3-2.6-5.8-3-8.6-4.7c-2.5-1.6-3.3-3.6-3.3-6.3c0-4.1-0.4-4.2-4.5-4.4c-7.7-0.3-15.3,0.2-23,0.1
			c-1.6,0-2.5-0.9-2.5-2.3c-0.3-5-0.6-10.1,0-15.1c0.3-2.2,2.3-2.1,3.9-2c7.2,0.5,14.4,0.5,21.5,0.4c3.2-0.1,6.3,0.1,9.5,0.1
			c1.7,0,2.5,0.7,2.6,2.3c0.1,1.9,0.3,3.8,0,5.7c-0.6,4.1,0.4,8.1,0.7,12.2c0.2,2.2,1.6,3.4,3.8,3.4c2,0,3.8-1.8,3.9-4.1
			c0.3-8.4,0.5-16.8,0.6-25.1c0-2.3-1-3.4-3.6-3.4c-3.2,0-6.5,0.3-9.7,0.3c-9.2-0.1-18.5-0.2-27.7-0.4c-0.2,0-0.3,0-0.5,0
			c-5.1,0.2-5.2,0.2-5.2-5c0-4.3,0.1-8.7,0.2-13c0-4.2,1.6-4.1,4.8-2.8c1.3,0.5,2.4,1.5,3.6,2.3c1,0.7,0.9,1.5,0.5,2.5
			c-0.6,1.5-1.1,3-1.1,4.6c0.1,2.6,0.7,3.2,3.2,3.2c6.9,0,13.8,0,20.7,0C709,295.2,709,295.1,709,295.1z M776.4,317.1
			c0,3,3,6.3,5.7,6.5c3.3,0.2,6.1-3.8,6.1-6.4c0.1-2.9-3.1-6.1-6-6.2C779.3,310.9,776.5,313.9,776.4,317.1z M882.9,312.1
			c3.7,0.1,4.3-0.5,4.1-4.3c0-0.8-0.1-1.6-0.2-2.4c-0.5-5.3-0.5-5.3-5.5-3.6c-3.9,1.3-4.9,3.9-5.6,7.5c-0.3,1.6,0.6,2.6,2.2,2.7
			C879.6,312.2,881.3,312.1,882.9,312.1z"/>
		<path fill-rule="evenodd" clip-rule="evenodd" fill="#17793D" d="M621.8,206.8c6.9,0,13.7,0,20.6,0c1.9,0,3.8,0,5.7,0.3
			c1.8,0.2,3.5-0.3,4.5-1.6c2.6-3.3,6.2-5.5,9.5-7.9c0.1-0.1,0.3-0.2,0.4-0.3c4.9-4,4.6-6.2-0.8-9.4c-3.3-2-6.2-2.6-9.3,0.1
			c-0.9,0.7-2.1,1-3.2,1.5c-2.2,1-2.6,2.6-1,4.5c0.9,1.1,2,2,3,3c1.3,1.3,1.3,2.5-0.3,3.8c-3.1,2.5-4.1,2.5-7-0.3
			c-2.5-2.4-5.3-3.9-8.9-2.3c-1.5,0.7-2.3-0.2-1.9-1.8c0.2-0.8,0.6-1.9,1.2-2.2c2.3-1.2,3-3.5,4-5.6c0.7-1.3,2-2,3.3-2.9
			c3.9-2.7,9.1-3.2,12.2-7.2c0.8-1,1.1-2.9,2.8-3c1.8-0.1,2,1.8,2.9,2.8c3.4,3.8,8.6,4.5,12.5,7.4c0.5,0.4,1.3,0.5,1.6,1
			c2.2,3.2,4,6.7,6.8,9.4c0.7,0.6,0.3,1.7-0.3,2.4c-0.7,0.7-1.3-0.2-1.8-0.5c-2.8-1.5-5.1,0.3-7.3,1.4c-1.8,1-3.3,2.4-4.9,3.7
			c-0.9,0.7-1.9,1.4-1.5,2.7c0.4,1.4,1.8,1.2,2.8,1.3c5.7,0.1,11.4,0.1,17.1,0.1c1.1,0,2.2,0,3.3,0.1c2.8,0,3.6-0.9,3.6-3.7
			c0.1-4.2,1-8.4,4.3-11.1c3.1-2.5,6.7-4.5,10.9-5.3c3.4-0.7,6.8-1.1,9.8-3c1.9-1.2,2.1,0.8,2.1,1.9c-0.1,2.6,0.1,5.2,0.1,7.8
			c0,8.5,0,16.9,0,25.4c0,1.4,0.1,2.8,0.1,4.3c-0.1,2.1-1.1,3.4-3.4,3.3c-1.4,0-2.8,0-4.3,0c-6.6,0.1-13.1,0.4-19.7,0.2
			c-8.8-0.2-17.5-0.4-26.3-0.2c-2.4,0-4.3-0.8-5.8-2.7c-1.3-1.6-2.8-1.6-4,0c-1.7,2.3-3.7,2.8-6.5,2.7c-18.7-0.2-37.3-0.1-56-0.1
			c-6.8,0-13.6-0.1-20.4-0.1c-3.9,0-4.2-0.5-4.6-4.2c-0.6-5.7-0.5-11.4-0.3-17.1c0.1-4.6,1.1-9,3.9-12.9c3.5-4.9,8.4-6.4,14.1-6
			c4.3,0.3,6-1.5,4-5.4c-1.6-3.2-0.6-5,1.2-7c1.8-2,4.2-3.1,6.7-3.8c1.8-0.5,2,1.2,2.1,2.4c0.1,2.4,0,4.9,0,7.3
			c0.1,7.7,0,15.3-0.1,23c0,2.9,0.7,3.7,3.5,3.8C609.3,206.8,615.6,206.8,621.8,206.8z M583.2,206.8
			C583.2,206.8,583.2,206.8,583.2,206.8c1.4,0,2.8,0,4.3,0c1.3,0,2.2-0.5,2.3-1.8c0.2-2.6,0.8-5.2,0.1-7.8c-0.2-0.8-0.5-1.6-1.3-1.8
			c-6.8-2.1-12.1,3.6-11.9,9c0.1,1.6,0.9,2.7,2.8,2.5C580.7,206.7,582,206.8,583.2,206.8z M710.9,200.9c-0.2-1.1,0.3-2.7-0.3-4.3
			c-0.3-0.8-0.6-1.4-1.6-1.4c-5-0.1-8.8,4.4-9,9.1c-0.1,1.4,0.9,2.3,2.4,2.4c0.9,0.1,1.7,0,2.6,0.1
			C711.6,207.7,711.1,206.3,710.9,200.9z"/>
		<path fill-rule="evenodd" clip-rule="evenodd" fill="#17793D" d="M633.2,417.5c5.4,0,10.7,0,16.1,0c1.1,0,1.8,0.4,2.2,1.4
			c0.4,1.1,0.7,2.3,0.6,3.5c-0.6,4.6,0.2,9.3,0,13.9c-0.1,2.1,0.9,3.5,2.3,4.7c1.5,1.3,3.3,1.1,4.5-0.6c0.8-1.1,1.2-2.3,1.2-3.7
			c0-7.7,0.1-15.3,0.1-23c0-2.5-0.7-3-3.3-3.2c-10.8-0.7-21.6,0.2-32.4-0.2c-2.4-0.1-4.9,0.1-7.3,0.3c-2.1,0.2-3-1-3-2.8
			c-0.1-6.1-0.1-12.2,0-18.3c0-2.1,1.3-2.7,3.2-1.9c0.7,0.3,1.3,0.6,1.9,0.9c4.7,2.1,4.7,2.1,3.1,6.9c-1.2,3.6-0.2,4.9,3.5,5
			c10.9,0.3,21.8-0.2,32.7,0.2c2.5,0.1,5.1,0,7.6-0.2c2.2-0.2,3.1,0.7,3.2,2.8c0.1,3.6,0.2,7.1,0.2,10.7c0,3.4,0.3,3.9,3.7,3.9
			c6.2,0,12.3-0.3,18.5-0.2c8.4,0.2,16.7,0.1,25.1-0.1c2.5,0,4.9,0.3,7.3,0.5c2.8,0.3,5.5-0.3,8.3-0.5c2-0.2,2.4-1.8,1.8-3.4
			c-1.2-3.2-2.8-5.9-6.5-7.1c-4.7-1.6-9.4-1.9-14.2-1.8c-8,0.2-9.2-1.1-8.4-9c0.1-0.6,0.1-1.1,0.1-1.7c0-1.9,0.9-2.1,2.4-1.3
			c4.7,2.3,9.6,4.3,15.1,3.8c1.5-0.1,3,0,4.3,0.9c1.9,1.3,4.5,0.7,6.4,2.3c4.1,3.5,6.7,7.8,7.8,13.1c0.7,3.2,2.7,4.8,6,4.5
			c1.4-0.1,2.8-0.2,4.3-0.3c2.1-0.1,3.1,1.1,3.1,3c0.1,4.5,0.1,9,0,13.5c-0.1,2-0.5,3.7-3.4,3.3c-1.7-0.3-3.5,0.2-5.2,0.2
			c-2.6,0.1-3.5,1.5-2.3,3.8c0.7,1.4,1.4,2.8,2.1,4.2c0.3,0.6,0.6,1.2,0.1,1.8c-0.5,0.6-1.2,0.3-1.7,0c-2.2-0.9-4.1-2.4-4.9-4.6
			c-1.9-4.5-5.1-5.6-9.8-5.5c-13.4,0.3-26.9-0.1-40.3,0c-5.1,0-10.1,0.3-15.2,0.2c-3.6-0.1-4,0.6-4.2,4.1c-0.2,3.1-1.6,5.4-4.6,6.8
			c-2.4,1.1-5.1,1.8-6.9,3.9c-0.9,1-1.8,1-2.8-0.1c-1.7-1.9-3.8-3.1-6.2-3.9c-3.6-1.2-5.3-3.7-5.6-7.4c-0.2-3.2-0.6-3.6-3.9-3.6
			c-6.4,0.1-12.8,0.2-19.2,0.3c-4.8,0.1-6.4,0.4-6.3-5.9c0-3.6-0.1-7.1,0-10.7c0-2.8,0.8-3.6,3.4-3.6c5.2,0,10.4,0,15.7,0
			C633.2,417.6,633.2,417.6,633.2,417.5z"/>
		<path fill-rule="evenodd" clip-rule="evenodd" fill="#17793D" d="M731.8,195.8c0-8.9,0-17.7,0-26.6c0-1.8-0.3-3.4-1.8-4.7
			c-1.3-1.1-1.1-2.5,0-3.8c2.5-3.1,5.8-5.4,8.5-8.2c0.8-0.8,1.4-0.3,1.6,0.4c0.2,0.8,0.2,1.7,0.2,2.6c0,14.1,0,28.3,0,42.4
			c0,2.3,0.5,4.5,0.6,6.8c0,1.2,0.8,1.9,1.9,2c1.5,0.2,3,0.4,4.5,0.4c15.9-0.8,31.8-0.1,47.6-0.1c3.3,0,6.6-0.1,9.9-0.3
			c2.8-0.2,3.7-2,2.1-4.4c-1.1-1.7-2.2-3.4-3.7-4.9c-3-2.8-6.7-2.4-10.2-2.9c-3.4-0.5-6.9,0-10.4-0.4c-2.2-0.2-3.6-1.4-4.5-3.4
			c-1-2.2-0.9-4.6-1.1-7c-0.1-1.2,0.6-3.3,2.4-2.1c5,3.5,10.9,3.4,16.4,4.6c2.4,0.5,4.9,0.3,7.2,1.3c4.8,2.2,8.1,5.6,9.2,10.9
			c0.4,2.2,1.9,4.1,1.9,6.5c0,1.1,1,1.6,2.2,1.7c2.7,0.3,5.4,0.4,8,0.3c1.9,0,2.7,0.8,2.9,2.6c0.4,4.7,0.5,9.3,0.3,14
			c-0.1,1.9-1.2,2.8-3.1,2.8c-2,0-3.9,0.1-5.9,0.1c-2.1,0-3.2,1.3-2.6,3.3c0.4,1.2,1.1,2.3,1.7,3.4c0.4,0.8,1.1,1.8,0,2.5
			c-0.9,0.6-1.8,0.3-2.6-0.4c-2.2-1.8-4.2-3.9-5.1-6.7c-0.6-1.8-1.7-2.3-3.6-2.2c-6.6,0.2-13.3,0.1-19.9,0.1
			c-16.8-0.1-33.5-0.1-50.3-0.2c-3.9,0-4.4-0.7-4.4-4.6c0-8.8,0-17.5,0-26.3C731.9,195.8,731.8,195.8,731.8,195.8z"/>
		<path fill-rule="evenodd" clip-rule="evenodd" fill="#17793D" d="M773.9,437.3c-2.9,0-5.8,0-8.8,0c-1.4,0-2.1-0.8-2.4-2.1
			c-0.6-2.4-0.4-4.9-0.4-7.3c0.1-4.4,0.1-8.8,0-13.2c-0.1-3.7,2-6.8,5.5-8c2.4-0.8,3.5-2.2,4-4.7c1-5,3.1-6.7,8.3-6.8
			c2.3-0.1,4.5-0.4,6.5-1.7c2.3-1.5,3.6-0.7,4.1,2c0.8,4.6-0.4,9.1,0,13.7c0,0.3,0,0.6,0,1c0,7,0.2,7.2,7.2,7.4
			c2.7,0.1,5.3,0.2,8,0.3c2.5,0.1,3.6-0.8,3.7-3.4c0.1-2.1,0-4.3,0-6.4c0-1.2-0.3-2.3-1.1-3.3c-1.5-2-1.3-3.3,0.6-4.9
			c2.2-1.9,3.8-4.5,6.2-6.2c0.8-0.6,1.4-1.4,2.5-1c1.2,0.5,0.8,1.6,0.8,2.5c0.4,8.8,0.1,17.7,0.2,26.5c0.1,4.1-0.5,8.2-0.3,12.3
			c0.1,2.5-1.2,3.1-3.7,3.3c-6.9,0.5-13.7,0-20.6,0.4c-2.4,0.1-3.2,1.4-3.7,4.1c-1.2,6.2-3.6,11.9-10.4,14
			c-4.1,1.3-8.2,1.5-12.3,0.1c-0.5-0.2-1.3-0.1-1.2-0.8c0-0.6,0.6-0.9,1.1-1.1c1.7-0.5,3.5-1,5.2-1.5c5.3-1.6,8.8-6.7,8.7-12.1
			c-0.1-2-0.9-2.9-2.9-2.8c-1.7,0.1-3.3,0-5,0C773.9,437.4,773.9,437.4,773.9,437.3z M782.1,411.4c-0.1-1.5-0.3-3-0.4-4.5
			c-0.1-1-0.6-1.8-1.6-1.5c-1.7,0.4-3.5,1.1-3.8,3.1c-0.3,2.2-1.2,3.6-3.1,4.6c-1,0.6-1.8,1.6-1.6,2.9c0.3,1.4,1.6,1,2.5,1.3
			c0.5,0.1,0.9,0.2,1.4,0.3C781.6,418.5,782.5,417.6,782.1,411.4z"/>
		<path fill-rule="evenodd" clip-rule="evenodd" fill="#17793D" d="M615,291c0-5.3,0-10.6,0-15.9c0-1.6-0.8-2.9-1.5-4.2
			c-1.4-2.5-1.1-3.7,0.9-5.7c2.3-2.2,4.6-4.5,6.9-6.8c0.5-0.5,1-1.2,1.8-0.9c0.8,0.3,0.6,1.2,0.6,1.9c0.1,12.5,0.3,25,0.4,37.5
			c0,3.4-0.3,6.8-0.1,10.2c0.3,5.1-2.5,9.1-4.6,13.3c-1.2,2.3-2.7,4.4-3.3,7c-0.1,0.2-0.1,0.5-0.2,0.7c-2,4.3-2,4.3,1.2,7.6
			c1.9,1.9,3.7,3.9,5.5,5.9c1.3,1.3,1.3,2.4,0.3,4c-1.4,2.4-3.9,3.6-5.7,5.7c-2.6,3-4.8,6.2-8.1,8.6c-1.6,1.2-2.9,1-4.1-0.3
			c-4.2-4.3-8.8-8.1-12.8-12.6c-1.3-1.5-1.4-3,0.3-4.8c2.6-2.7,5.3-5.4,8-8.1c1.7-1.7,1.6-3.1,0.3-5.2c-3.1-5.1-5.8-10.5-8.2-15.9
			c-0.4-0.9-0.4-1.8-0.4-2.8c0-9.5,0-19,0-28.4c0-2.6,0.2-5.2,0.4-7.8c0-0.6,0-1.4,0.7-1.6c0.7-0.3,1.2,0.3,1.6,0.7
			c2.7,2.8,5.3,5.6,8,8.4c0.8,0.9,0.5,1.7-0.1,2.6c-2.2,2.9-3,6.3-2.4,9.9c0.6,3.9,0.1,7.7,0.1,11.6c0,3,1.3,5.1,3.3,7
			c0.2,0.2,0.4,0.3,0.6,0.4c4,3.1,4,3.1,7.5-0.5c2-2,3.5-4.3,3.3-7.5c-0.3-4.6-0.1-9.3-0.1-14C615.1,291,615,291,615,291z
			 M613.4,344.8c-0.2-2.3-2.1-3.2-3.3-4.6c-1.4-1.7-2.7-1.9-4.6-0.4c-4.7,3.9-4.9,5.2-0.6,9.6c2.3,2.4,2.7,2.5,5-0.1
			C611.2,347.9,612.8,346.6,613.4,344.8z"/>
		<path fill-rule="evenodd" clip-rule="evenodd" fill="#17793D" d="M580.4,311.4c0,6,0,12,0,18c0,5-0.8,10-2,14.7
			c-1.2,4.8-4.7,8.1-9.7,9.5c-1,0.3-2,0.5-2.9,1c-2.4,1.4-4.4,0.5-6.3-1c-1-0.8-1.1-1.7,0.3-1.9c4.7-0.8,7.3-4.1,9.9-7.5
			c1-1.3,0.5-2.9,0.8-4.4c0.3-1.6,0.8-3.2,1.2-4.8c0.5-2-0.4-3.1-2.2-3.4c-1.4-0.2-2.9-0.4-4.2-0.1c-4.2,1-8.3-0.1-12.5-0.1
			c-1.8,0-3.3-0.9-3.2-2.8c0.2-7.1-0.9-14.2,0.7-21.3c0.6-2.6,1.9-4.5,4.5-5.3c1.2-0.4,1.9-1.2,2.2-2.3c1.5-5.2,5.7-7.2,10.3-7.6
			c3.7-0.4,6.9-1.6,10.1-3c2.5-1.1,3.1-0.8,3.1,1.9C580.4,298,580.4,304.7,580.4,311.4C580.4,311.4,580.4,311.4,580.4,311.4z
			 M570.4,307.2L570.4,307.2c0-0.7,0-1.4,0-2.1c0-1.4-0.1-3-1.6-3.4c-1.7-0.5-3.9-0.5-4.8,1.1c-1.2,2.3-2.9,4.3-4.1,6.5
			c-1,1.8-0.2,2.8,2,2.7c2-0.1,4.1-0.4,6.1-0.2c1.8,0.2,2.3-0.5,2.3-2C570.4,309,570.4,308.1,570.4,307.2z"/>
		<path fill-rule="evenodd" clip-rule="evenodd" fill="#17793D" d="M604.1,411.1c0,7.6,0,15.2,0,22.7c0,3.4-0.5,3.7-3.8,3.7
			c-8-0.1-16.1,0-24.1-0.1c-2.9,0-3.9-1.2-3.9-4.1c0-6.4-0.1-12.8-0.1-19.2c0-4,0.8-6.9,6.3-8.3c1.1-0.3,1.8-0.9,1.8-1.9
			c0.1-5.2,3.5-6.9,7.8-7.7c1.7-0.3,3.4-0.6,5.1-1c1.9-0.4,2.6-1.4,2.4-3.3c-0.4-3.7-0.3-3.7,3.1-4.9c0.9-0.3,1.6-1,2.3-1.6
			c1.4-1.1,2.3-0.7,2.8,0.9c0.2,0.8,0.3,1.7,0.3,2.6C604.1,396.2,604.1,403.7,604.1,411.1z M595.2,409.9c-0.1-0.6-0.4-1.3-0.4-2
			c-0.1-0.7-0.1-1.4-0.1-2.1c-0.2-2.2-1.6-3-3.6-2c-2,1.1-2.7,3-3.1,5c-0.3,1.3-0.8,2.2-2.2,2.4c-1.8,0.3-2.9,1.6-3.7,3.1
			c-0.9,1.6-0.1,3.4,1.6,3.3c2.8-0.2,5.6,0.6,8.5,0c1.5-0.3,2.3-1.1,2.5-2.4C594.8,413.4,594.8,411.7,595.2,409.9z"/>
		<path fill-rule="evenodd" clip-rule="evenodd" fill="#17793D" d="M498.4,327c0.9,0.9,0.8,2,1,2.9c1.2,5.8,4.1,10,9.9,12.2
			c2,0.7,3.9,1.4,6,1.6c4.7,0.5,10.6-3.7,11.9-8.2c1.6-5.3,1.9-10.7,1.9-16.1c0-15.3,0-30.5,0-45.8c0-1.7-0.5-2.9-2.2-3.5
			c-1.2-0.4-1.6-1.3-0.8-2.4c2.4-3.7,5.6-6.6,9-9.4c1.2-1,1.5,0.4,1.6,1.4c0.2,4,0.4,8.1,0.4,12.1c0.1,18.2,0.2,36.4,0,54.6
			c-0.1,5.4,0.2,10.9-2.3,15.9c-2.2,4.4-5.4,7.8-10,9.6c-2.5,1-5.1,1.8-8,1.7c-7.6-0.2-13-3.9-17.2-10c-3.1-4.5-3.6-9.2-2.2-14.4
			c0.1-0.5,0.4-1,0.6-1.5C498,327.5,498.2,327.3,498.4,327z"/>
		<path fill-rule="evenodd" clip-rule="evenodd" fill="#17793D" d="M636,294.5c0-10.8,0-21.7,0-32.5c0-1.3-0.4-3.1,0.9-3.7
			c1.1-0.5,1.8,1.2,2.7,1.9c2.3,1.8,4,4.2,6.4,6c1.5,1.1,1.3,2.7,0,3.9c-1.6,1.3-1.9,2.9-1.9,4.8c0,17.1,0,34.1,0,51.2
			c0,0.9,0,1.9-0.2,2.8c-0.3,1.7-0.8,2.7-3.1,2.4c-5-0.5-5-0.4-4.9-5.4c0-10.5,0-21,0-31.5C635.8,294.5,635.9,294.5,636,294.5z"/>
		<path fill-rule="evenodd" clip-rule="evenodd" fill="#17793D" d="M596.1,160.7c0,1.5-3.3,5.8-4.3,6.1c-0.7,0.2-1.1-0.2-1.4-0.6
			c-1-1.5-2.7-2.5-3.8-3.9c-0.8-1-1.5-0.9-2.3-0.1c-1.2,1.2-2.3,2.6-3.7,3.7c-1,0.7-1.9,0.7-2.7-0.3c-0.2-0.2-0.4-0.5-0.6-0.7
			c-3.5-3.8-3.3-5.3,0.8-8.5c1.2-0.9,2.2-0.7,3.2,0.2c1,0.9,2.1,1.7,3,2.7c1.1,1.2,2,1.1,3,0c0.4-0.5,0.8-1,1.3-1.4c1-1,1.8-3,3.5-2
			C594,157,595.5,158.8,596.1,160.7z"/>
		<path fill-rule="evenodd" clip-rule="evenodd" fill="#17793D" d="M589.1,264.9c1.9-3.1,1.9-6,1.4-9.2c-0.3-1.8,0.1-3.9,2.2-4.8
			c2.2-0.9,4.4-0.6,6.2,1c0.9,0.8,1.4,1.8,0.7,3c-0.7,1.3-1.7,0.7-2.7,0.2c-1-0.5-2-1-2.7,0.3c-0.6,1.1-0.2,2.2,0.9,2.9
			c1.5,1,2.9,1.8,4.8,1.6c1.2-0.1,2.5,0.2,2.4,1.6c0,1.3-1.4,1.5-2.4,1.3C596.3,262.1,593.2,264.3,589.1,264.9z"/>
		<path fill-rule="evenodd" clip-rule="evenodd" fill="#17793D" d="M808.5,453c1-0.1,1.4,0.4,1.9,0.8c4.9,4.7,4.9,4.7,0.6,9.9
			c-2.2,2.7-2.4,2.7-4.7-0.1c-0.4-0.4-0.7-0.8-1.1-1.2c-3.1-3-3.2-3.9,0-6.8C806.2,454.6,807.1,453.3,808.5,453z"/>
		<path fill-rule="evenodd" clip-rule="evenodd" fill="#17793D" d="M788,244.1c0.1-1.1,0.5-2.1,1.4-2.6c1.5-0.9,1.8-3.2,3.8-3.3
			c1.9-0.1,2.5,1.9,3.9,2.9c2.7,1.9,2.8,3.2,0.4,5.6c-0.2,0.2-0.4,0.5-0.7,0.7c-1.2,1-2.3,3.3-3.9,2.5c-2-1-3.8-2.7-4.7-5.1
			C788.2,244.5,788.1,244.3,788,244.1z"/>
		<path fill-rule="evenodd" clip-rule="evenodd" fill="#17793D" d="M720.4,460.6c-1.7-0.3-2.5-1.5-3.4-2.8c-1.9-2.9-0.5-7.4,2.6-8.8
			c0.3-0.1,0.6-0.2,0.9-0.2c0.9,0,5.9,4.4,6,5.4c0.1,0.5,0.2,1.1-0.2,1.6c-1.5,1.7-3.2,3.2-5,4.6
			C721.1,460.5,720.7,460.5,720.4,460.6z"/>
		<path fill-rule="evenodd" clip-rule="evenodd" fill="#17793D" d="M601.7,372.1c0.1,1.7-3.2,5.4-4.7,5.4c-1.3,0-5.2-4.1-5.3-5.4
			c0-1.4,3.5-5,4.9-5.1C598.3,366.9,601.7,370.4,601.7,372.1z"/>
		<path fill-rule="evenodd" clip-rule="evenodd" fill="#17793D" d="M580.3,371.9c-0.1-1.6,3.1-4.8,4.9-4.9c1.7,0,5.2,3.2,5.3,4.9
			c0,1.1-3.7,5.1-4.8,5.2C584.1,377.3,580.4,373.6,580.3,371.9z"/>
	</g>
	<path fill-rule="evenodd" clip-rule="evenodd" fill="#20428B" d="M24.5,693.4c2.9-6.2,7.1-11.6,11.3-17c2-2.6,3.8-5.4,5.7-8.2
		c1.1-1.7,2.3-2,4-0.9c0.4,0.3,0.8,0.5,1.2,0.7c3.7,1.8,4,2.9,1.7,6.4c-2.9,4.3-5.9,8.6-9.2,12.6c-1.8,2.2-2.8,4.8-3.9,7.2
		c-0.9,1.9,0.7,4.8,3.2,6.2c5.9,3.3,10.6,2,14.3-3.7c3.6-5.4,7.3-10.6,11-15.9c0.6-0.9,1.4-1.7,2.3-2.4c1.4-1.3,3.2-0.8,6.4,1.6
		c1.5,1.1,1.2,2.5,0.3,3.8c-3.7,5.5-7.5,10.9-11.2,16.4c-1.8,2.7-4,4.8-6.6,6.6c-4.3,3-8.9,3.3-13.8,2.3c-6.4-1.2-11.2-4.7-15.1-9.8
		c-0.9-1.2-0.8-2.6-1.5-3.8C24.5,695,24.5,694.2,24.5,693.4z"/>
	<path fill-rule="evenodd" clip-rule="evenodd" fill="#20428B" d="M178.6,650.2c-0.1-2.4,0.2-7.1,2-11.5c3.9-9.2,9.5-17,19.5-20.3
		c5.5-1.8,10.8-0.5,15.1,3.7c4.1,4,6.1,9,7.4,14.5c1.8,7.4,1.6,14.7-0.2,22c-1.4,5.5-3.4,10.9-7.5,15.3c-3.8,4-8.4,6.3-14,6.4
		c-6.8,0.1-11.8-2.7-16.1-8.1C179.4,665.3,178.5,658.6,178.6,650.2z M217.3,649.7c0.2-8.1-1.4-14-5.2-18.7c-3-3.8-9-5.5-12.7-3.6
		c-4.1,2.1-7.1,5.2-9.8,8.7c-6.4,8.2-6.9,23.5,0.5,32.1c6.1,7.2,15.2,6.4,20.6-0.3C215.2,662.2,217.7,655.7,217.3,649.7z"/>
	<path fill-rule="evenodd" clip-rule="evenodd" fill="#20428B" d="M795.9,576.6c-0.2-5.7,2.6-9.3,6.3-12.2c1.5-1.1,2.3-2.3,1.7-3.9
		c-0.7-1.7-2.3-2.4-4.1-2.1c-1.2,0.2-2.4,0.8-3.6,1c-8.1,1.5-14.7-1.2-20.2-7.2c-0.4-0.5-0.8-0.9-1.3-1.4c-1.9-1.8-2-2.9-0.2-4.7
		c1.5-1.6,3.7-1.6,4.8,0.4c1.6,2.8,4.1,4,6.5,5.6c3,1.9,6.2,1.8,9.4,1.1c1.7-0.4,2.1-1.9,0.8-3.8c-1.5-2.3-3.3-4.5-5-6.6
		c-1.7-2.3-1.8-3.4,0-4.8c1.8-1.4,3.6-1.1,4.9,1.3c1.6,2.9,3.9,5.2,5.8,7.7c1.5,2.1,2.7,2.1,4.4,0.2c3.2-3.4,3.7-8.1,0.7-13.6
		c-1.3-2.5-1.2-3.8,1-4.8c1.8-0.9,3.1-0.8,4,1.3c0.8,2,2.4,3.7,3.3,5.7c1.9,4,2.1,9.8-1.9,13.9c-1.3,1.3-2.3,3-4,4
		c-1.2,0.7-1.2,1.9-0.5,3.1c1.1,2,3,3,4.9,2.4c3.5-1.3,7-1.8,10.7-1.4c6,0.6,10.2,4.2,13.8,8.7c1,1.3,0.7,2.5-0.5,3.6
		c-1.8,1.5-3.9,1.4-5.3-0.3c-1.3-1.6-2.8-3-4.5-4.2c-3-2.1-6.2-2.3-9.5-1c-2.2,0.8-2.5,2.2-1.3,4.1c1.3,2,2.7,4,4.1,6.1
		c0.9,1.4,1.7,2.8,0,4.2c-1.7,1.4-3.5,1-4.9-0.9c-1.8-2.6-3.6-5.2-5.5-7.7c-1.5-2-2.4-2.1-4.2-0.3c-4,3.9-4.4,6.5-1.9,12.1
		c1.1,2.6,0.2,4.7-2.4,5.3c-1.6,0.4-3-0.1-3.6-1.6C797.6,582.5,795.3,579.7,795.9,576.6z"/>
	<path fill-rule="evenodd" clip-rule="evenodd" fill="#20428B" d="M904.7,726.1c0,2.7-4.4,6.1-6.9,5.5c-1.2-0.3-1.7-1.4-2-2.4
		c-1.1-3.5-2-7.1-3-10.6c-0.3-1-0.2-2.3-1.6-2.2c-1.2,0-1.1,1.3-1.4,2.2c-1.5,4.9-3.1,9.9-4.7,14.8c-0.7,2.1-1.9,2.4-3.7,0.9
		c-3.1-2.5-5.9-5.5-8.7-8.4c-0.6-0.6-1.1-1.8-2.3-1.2c-1.1,0.6-1,1.7-0.8,2.8c0.5,3.2,0.9,6.4,1.5,9.6c0.7,3.8-0.2,5.3-4,6.3
		c-3.8,1-3.8,1-4.4-3.1c-1.7-11.2-2.4-22.4-3.6-33.6c-0.1-1.2,0-2.5,1.3-3.1c1.3-0.6,2.4,0.2,3.4,1.1c4.7,4.6,9.4,9.2,14,13.8
		c2.4,2.4,3.8,2.1,4.8-1.1c2.5-8,4.9-16,7.4-24c0.3-1,0.7-2.2,1.9-2.5c1.4-0.3,1.9,0.9,2.5,1.8c0.4,0.6,0.7,1.4,0.9,2.1
		c2.6,8.8,5.3,17.6,7.9,26.4C903.7,722.8,904.9,724.3,904.7,726.1z"/>
	<path fill-rule="evenodd" clip-rule="evenodd" fill="#20428B" d="M416.5,804.5c-3.8,0-4.9-1.6-3.9-5.6c0.7-2.8,1.5-5.5,1.7-8.3
		c0.1-0.8,0.4-1.9-0.6-2.3c-1-0.4-1.3,0.8-2,1.3c-3.9,3.3-7.1,7.2-10.8,10.7c-1.8,1.7-3.2,1.3-4.1-1c-1.4-3.7-2.7-7.3-4.1-11
		c-0.2-0.6-0.2-1.6-1.1-1.6c-0.8,0-1.1,0.9-1.4,1.5c-1.5,3.3-2.9,6.6-4.3,10c-1.7,4.1-3.6,5.1-7.7,3.4c-2.2-0.9-1.8-3-1.1-4.5
		c3.1-7,5.7-14.1,8.4-21.2c1.1-2.9,2.2-5.9,3.4-8.8c0.6-1.5,1.1-3.3,2.9-3.3c2,0,2.5,1.8,3,3.5c2,5.8,4.1,11.7,6.1,17.5
		c0.2,0.7,0.6,1.3,1,1.8c0.9,1.3,1.8,1.3,2.9,0.1c5.9-6.9,12.8-12.7,19-19.3c0.8-0.8,1.7-1.3,2.7-0.7c1,0.7,1.1,1.7,0.9,3
		c-1.2,6.2-2.5,12.5-3.1,18.8c-0.1,1.5-0.9,2.9-1.2,4.3c-0.6,2.4-0.8,4.8-1.2,7.2C421.2,803.7,420.3,804.5,416.5,804.5z"/>
	<path fill-rule="evenodd" clip-rule="evenodd" fill="#20428B" d="M655.4,784.8c0,3.4,0,5.8,0,8.3c0,1.9-0.9,2.9-2.7,3.2
		c-5.1,1-5.9,0.3-6.3-4.9c-0.2-2.9-0.6-5.8-0.5-8.7c0-0.8-0.1-1.8-0.9-2c-1-0.3-1.2,0.8-1.6,1.4c-2.2,3.6-4.4,7.3-6.6,10.9
		c-0.3,0.5-0.6,0.9-0.9,1.4c-2.4,3-4,2.9-5.9-0.4c-1.6-2.8-3.1-5.7-4.7-8.5c-0.6-1-1.1-2.5-2.5-2.2c-1.3,0.3-1.1,1.9-1.2,3
		c-0.3,3.8-1.4,7.6-1.7,11.4c-0.2,2.4-3.3,3.6-6.7,2.8c-2.1-0.5-2.3-1.3-1.8-4.4c1.1-6.8,2-13.7,3-20.5c0.5-3.3,1.7-6.6,1.5-10
		c0-0.6,0.3-1.2,0.5-1.8c0.5-1.2,1-2.5,2.4-2.7c1.5-0.2,2.1,1.2,2.7,2.3c3.6,5.8,7.2,11.6,10.9,17.3c1.4,2.2,2.1,2.1,3.5-0.2
		c4.5-7,8.9-14.1,13.4-21.2c0.3-0.4,0.5-0.8,0.8-1.1c0.7-0.7,1.4-1.5,2.4-1.1c0.9,0.3,1.1,1.3,1.3,2.1c0.9,3.7,0.5,7.5,0.8,11.3
		C655.2,775.6,655.9,780.6,655.4,784.8z"/>
	<path fill-rule="evenodd" clip-rule="evenodd" fill="#20428B" d="M604.6,781.6c0,5.1,0,10.3,0,15.4c0,4.5-2.8,6.6-7.2,5.4
		c-1.8-0.5-2.1-1.9-2.1-3.5c0-3.4-0.1-6.8-0.1-10.2c0-0.8,0.1-1.8-0.7-2.1c-1-0.4-1.6,0.6-2.1,1.3c-2.2,3.3-4.3,6.6-6.5,9.8
		c-1.1,1.6-1.9,4.2-4.3,3.8c-1.9-0.3-2.2-2.7-3.1-4.4c-1.5-2.8-3.1-5.5-4.6-8.2c-0.4-0.6-0.9-1.2-1.7-1c-0.7,0.2-1,0.9-1,1.5
		c-0.3,3.7-1.4,7.2-2,10.9c-0.6,3.4-4.9,5.7-7.9,4c-1-0.6-1-1.6-0.8-2.7c0.9-6.9,2.6-13.5,4-20.3c0.7-3.8,1.5-7.5,2.3-11.3
		c0-0.2,0-0.5,0.1-0.7c0.6-1.5,0.6-3.6,2.6-3.8c1.9-0.2,2.2,1.8,3,3c3.6,5.4,5.8,11.7,9.8,16.9c1.6,2.1,2,2.1,3.4,0.1
		c4.5-6.3,8.8-12.6,13.3-19c0.7-1,1.4-1.9,2.1-2.8c0.6-0.7,1.2-1.4,2.2-1.1c1.1,0.4,1.5,1.3,1.5,2.4c0,3.1,0,6.2-0.1,9.2
		C604.5,776.7,604.5,779.2,604.6,781.6C604.5,781.6,604.5,781.6,604.6,781.6z"/>
	<path fill-rule="evenodd" clip-rule="evenodd" fill="#20428B" d="M61,717.5c-0.1-0.8,0.3-1.5,0.7-2.2c4.6-6.6,9.2-13.1,13.6-19.9
		c1.8-2.8,3.6-5.7,5.4-8.6c0.7-1.1,1.4-2.2,2.9-2c1.4,0.3,2.1,1.4,2.4,2.7c2,6.7,4.4,13.2,6,20c0.3,1.4,0.8,3.4,2.4,3.8
		c1.7,0.4,1.8-1.7,2.5-2.7c1.7-2.4,3.4-4.9,4.7-7.5c1-2.1,2.6-3.7,4-5.5c0.1-0.1,0.2-0.3,0.3-0.4c2.3-1,4.1,0.4,5.9,1.3
		c1.4,0.7,1.7,2.2,1,3.9c-0.9,2.1-2.5,3.8-3.6,5.8c-4.8,8.3-9.9,16.5-14.9,24.6c-1.4,2.2-3.2,2-4.3-0.7c-1.6-3.8-3-7.8-4.2-11.7
		c-1.3-4.1-2.3-8.3-3.4-12.4c-0.2-0.7-0.4-1.4-1.2-1.6c-1-0.2-1.4,0.6-1.8,1.3c-3.1,4.7-6.2,9.3-9.2,14c-1.3,2-2.6,2.4-4.8,1.3
		c-1.1-0.5-2.1-1.1-3.2-1.6C61.3,719,60.9,718.4,61,717.5z"/>
	<path fill-rule="evenodd" clip-rule="evenodd" fill="#20428B" d="M982.1,668.5c0.2,2-0.3,4.4-1.5,6.6c-1,1.9-0.6,3.5,1.1,4.8
		c2.3,1.7,4.6,3.4,6.9,4.9c2.3,1.5,2.3,3.3,0,4.7c-0.9,0.5-1.8,1-2.6,1.6c-1.7,1.1-3.4,1.1-5.1-0.1c-2.3-1.6-4.6-3-6.8-4.8
		c-2.3-1.9-4.2-0.6-6,0.5c-1.8,1.1-1.4,2.9-0.9,4.5c0.5,1.8,1.1,3.6,1.7,5.4c0.8,2.1,0.2,3.4-1.8,4.4c-5.5,2.8-6.1,2.5-7.4-3.6
		c-0.9-4.2-2.3-8.3-3.7-12.4c-1.9-5.8-3.6-11.7-5.3-17.5c-1.1-3.8-0.7-4.6,2.8-6.4c3-1.6,6-3.2,9-4.8c3.9-2,8.1-2.1,12.2-0.8
		C979.6,657.2,982.3,661.9,982.1,668.5z M960.6,668.9c0.6,2.4,1.2,5,2,7.5c0.9,3,2.1,3.4,4.9,1.9c0.4-0.2,0.9-0.4,1.2-0.6
		c4.4-3.5,7.4-8.4,2.8-13.3c-1.8-1.9-3.6-2.3-5.7-1.3C963.4,664.3,960.7,665.3,960.6,668.9z"/>
	<path fill-rule="evenodd" clip-rule="evenodd" fill="#20428B" d="M1120.8,583.5c0.6,7.5-3.1,13.1-7.8,18.4
		c-2.2,2.5-4.7,4.7-7.2,6.8c-1.4,1.2-2.5,1.1-3.5-0.6c-2.6-4.6-4.9-9.3-7.5-13.9c-3.5-6.2-6.7-12.7-10.9-18.5
		c-2.1-2.9-2.4-4.8,0.2-7.7c3.6-3.9,7.5-7.2,12.3-9.3c4.4-1.9,11.5-1.1,14.8,2.9c3.8,4.7,6.7,9.7,8.9,15.2
		C1121,579.1,1120.6,581.3,1120.8,583.5z M1113.3,584c-0.6-5.4-2.6-10.7-7.5-14.6c-4.8-3.9-7.5-3.8-12,0.4c-2.1,2-2.2,2.9-0.6,5.3
		c1.8,2.8,3.7,5.6,5.2,8.6c1.9,3.7,4.2,7.2,6.4,10.7c1.5,2.5,2.5,2.5,4.5,0.3C1112.1,592,1113.4,588.5,1113.3,584z"/>
	<path fill-rule="evenodd" clip-rule="evenodd" fill="#20428B" d="M806.9,723.3c4.4,0,7.7,0.3,10.1,3.2c3.1,3.8,3.2,8.1,2.2,12.5
		c-0.4,2-1.3,3.9-2.6,5.5c-1.3,1.6-1.1,3.1,0.4,4.6c2,1.9,4,3.8,5.9,5.8c1.8,1.8,1.4,3.2-1,3.9c-1,0.3-2,0.5-2.9,0.9
		c-3.1,1.1-4.8,0.5-7-2.1c-1.6-1.9-3.4-3.7-5.2-5.5c-0.8-0.8-1.7-0.9-2.8-0.3c-4.2,2.1-4.4,2.6-3.6,7.4c0.2,1,0.2,2,0.1,3.1
		c-0.2,3-4.2,5.7-7.1,4.8c-1-0.3-1.4-1.2-1.5-2.2c-0.4-3.5-1.1-7-1.3-10.5c-0.3-7.4-1.3-14.7-2.3-22.1c-0.5-3.9,0-4.7,3.7-5.8
		C797.3,724.8,802.4,723.1,806.9,723.3z M797.8,736.5c0.2,1.7,0.4,4,0.6,6.2c0.3,1.9,1.3,2.5,3.3,2.2c3.7-0.6,6-3.1,8.3-5.5
		c1.6-1.8,1.5-5,0.2-6.8c-1.6-2.3-3.2-2.8-6.4-1.9c-0.8,0.2-1.5,0.4-2.3,0.6C798.4,732,797.8,732.8,797.8,736.5z"/>
	<path fill-rule="evenodd" clip-rule="evenodd" fill="#20428B" d="M1037.6,645.7c1,10.7-6,20.7-16.6,23.7
		c-4.7,1.3-11.2-1.1-14.6-5.7c-5.9-7.8-6.6-16.5-4.1-25.5c1.3-4.9,4.4-9.2,8.9-11.8c7.3-4.2,16.1-3.7,21.6,4.5
		C1035.9,635.6,1037.9,639.6,1037.6,645.7z M1018.4,660.9c4.6-0.1,7.2-2,9.1-4.9c4-6.1,2-15.5-2.2-20c-5.2-5.6-12.6-4.3-15.3,2.8
		c-0.7,1.7-2.1,3.5-1.7,5.3c0.8,4.1,1.2,8.3,3.7,11.8C1013.8,658.4,1015.9,660.8,1018.4,660.9z"/>
	<path fill-rule="evenodd" clip-rule="evenodd" fill="#20428B" d="M237,745.7c-0.2,6.7-3.9,10.7-9.2,13.4c-3.2,1.6-3.8,2.8-2.8,6.4
		c0.6,2.1,1.2,4.2,1.3,6.5c0.1,2.2-0.6,2.5-2.8,2.3c-5-0.5-7.6-3-8-8c-0.1-1.1-0.6-2.1-0.9-3.2c-0.9-2.8-2.7-4-5.6-4.2
		c-1.4-0.1-2.2,0.8-2.8,1.8c-1.1,2.1-2.3,4.1-3.4,6.2c-0.7,1.4-1.7,1.9-3.3,1.2c-0.8-0.4-1.6-0.6-2.5-0.8c-2.7-0.7-3.4-2-2.1-4.4
		c4.2-8.3,8.5-16.5,12.8-24.7c0.8-1.5,1.6-3,2.2-4.7c1-2.6,2-3,4.6-2.2c4.2,1.3,8.4,2.6,12.6,4c2.3,0.8,4.2,2.2,6.1,3.5
		C236.1,740.5,236.5,743.3,237,745.7z M218.9,753.3c1-0.1,2.1-0.1,3.1-0.2c3.2-0.5,6.2-4.7,5.4-7.5c-1-3.6-5.9-6.5-9.5-5.7
		c-0.8,0.2-1.4,0.7-1.8,1.4c-1.3,2.7-2.7,5.3-3.9,8c-0.7,1.5-0.3,2.5,1.4,3.1C215.4,753,217.1,753.5,218.9,753.3z"/>
	<path fill-rule="evenodd" clip-rule="evenodd" fill="#20428B" d="M697.6,771.5c0-6.2-0.1-12.5,0-18.7c0.1-3.5,0.7-4.3,4.3-4.7
		c5.2-0.6,10.4-1.8,15.8-1.1c7.3,0.9,12.8,5.1,13.7,12.9c0.4,3.7,0.4,7.4-0.7,10.8c-1.2,3.5-3.4,6.7-6.4,9.2
		c-6.8,5.8-15.3,7.1-23.6,8.7c-1.9,0.4-3.1-0.9-3.1-2.9C697.6,781,697.6,776.3,697.6,771.5C697.6,771.5,697.6,771.5,697.6,771.5z
		 M706.7,766.2c-0.2,3.2,0.1,7.3,0.5,11.4c0.1,1.8,0.9,2.5,2.8,2.3c6.5-0.9,12.4-7,12.8-13.1c0.4-5.8-1.7-11.7-8-12.8
		c-1.5-0.3-2.8,0-4.2,0.2c-2.9,0.5-3.7,1.4-3.8,4.3C706.7,760.7,706.7,763,706.7,766.2z"/>
	<path fill-rule="evenodd" clip-rule="evenodd" fill="#20428B" d="M472.2,784.8c0.2,5.1-2.6,9.9-6.7,14.3c-6.1,6.5-13.8,8.2-22,6.8
		c-7.8-1.3-13.2-7.8-12.1-16.6c0.9-6.5,3.1-12,8.2-15.8c6.8-5,14.6-8.1,23-4.6C469.6,771.7,472.2,774.8,472.2,784.8z M454.2,774.5
		c-1.3,0-2.7,0-3.9,0.6c-4.9,2.2-8,6-9.3,11.2c-1.1,4.1-0.9,7.9,2.8,10.9c3.4,2.7,7.2,2.9,10.9,1.2c5.5-2.6,9.2-9.6,8.6-15.7
		C462.8,778,458.8,774.4,454.2,774.5z"/>
	<path fill-rule="evenodd" clip-rule="evenodd" fill="#20428B" d="M1072.8,626.6c0.1,6.1-3.2,10.8-8.1,14.5
		c-2.3,1.7-4.5,3.7-7.6,4.2c-3.8,0.6-7-0.1-9.7-3c-3.7-4-6.3-8.5-8-13.7c-1.3-4-3.2-7.7-5.1-11.4c-1.9-3.6-0.8-7.2,2.9-8.9
		c2.1-1,3.1,0.6,3.8,2.1c1.4,2.8,2.3,5.9,3.7,8.6c2.2,4.3,3.6,9.1,6.2,13.2c1.5,2.4,3.2,4.7,6.5,4.1c3.4-0.6,6.8-4.7,7.2-7.9
		c0.4-3.8-1.1-6.9-2.7-10.1c-3-6-6.1-11.9-9-17.9c-1.4-3,0.7-6.7,4-7.2c1.2-0.2,1.8,0.7,2.5,1.5c1.5,1.9,2,4.3,3.1,6.3
		c2.8,5.1,5.7,10.1,7.8,15.6C1071.6,619.7,1073,622.8,1072.8,626.6z"/>
	<path fill-rule="evenodd" clip-rule="evenodd" fill="#20428B" d="M495.5,783.9c2.2,0.4,4.6-0.4,7.1-0.6c2.1-0.1,2.5-1.8,2.7-3.4
		c0.4-3.1,1.4-6,2-9c0.5-2.3,5.7-3.9,7.5-2.3c0.8,0.7,1,1.5,0.9,2.6c-1,7.2-2.3,14.3-3.8,21.4c-0.6,2.9-0.7,5.9-1.2,8.9
		c-0.2,1.4-0.8,2.6-1.3,3.8c-0.6,1.5-4.7,2.4-6.9,1.5c-2-0.8-1.4-2.4-1.3-4c0.2-3.1,0.9-6,1.6-9c0.4-1.6-0.2-2.8-2.3-3.1
		c-3.9-0.5-7.7,0-11.6,0c-2.1,0-2.7,1.9-3.1,3.7c-0.7,3.5-0.7,7.2-2.2,10.6c-0.8,1.7-1.5,2.7-3.5,2.1c-0.7-0.2-1.6-0.1-2.4-0.1
		c-2.3-0.2-3-1.4-2.7-3.7c1.4-9.1,4.1-17.8,5.8-26.9c0.3-1.7,0.3-3.5,0.9-5.1c0.9-2.6,6.3-3.7,8.2-1.7c0.6,0.7,0.7,1.4,0.5,2.2
		c-0.9,2.7-0.7,5.5-1.2,8.2c-0.4,2.3,0.8,3.5,3.1,3.7C493.3,783.7,494.2,783.8,495.5,783.9z"/>
	<path fill-rule="evenodd" clip-rule="evenodd" fill="#20428B" d="M846.7,565.2c-1.3,0.2-1.9-0.8-2.6-1.7c-4-4.9-6.7-10.7-10.8-15.5
		c-5.4-6.5-9.5-14-15.1-20.3c-1.7-1.9-1.4-3.9,0.4-5.4c1.5-1.2,2.9-0.9,4.5,1.2c5,6.8,10.1,13.5,15,20.3c2.6,3.6,4.9,7.5,7.6,11.1
		c1.6,2.1,2.6,2.2,4.5,0.5c3.4-3.1,7.5-5.2,11.6-7.1c1.9-0.9,3.5-2.4,5.1-3.8c1.1-1,0.8-2.4,0-3.5c-5.9-7.7-10.8-16.1-16.8-23.7
		c-1.9-2.4-4-4.7-5.6-7.3c-0.5-0.8-0.8-1.7-0.8-2.7c0-1.4,0.9-2.1,2-2.7c1.2-0.6,2,0.1,2.6,1c2.8,3.7,5.5,7.5,8.4,11.2
		c5.3,6.9,9.6,14.6,15.3,21.3c1.2,1.4,2.1,2.9,3.1,4.5c1.7,2.7,1.2,4.3-1.6,5.9c-6.3,3.7-12.6,7.5-18.8,11.4c-2,1.2-3.8,2.8-5.7,4.2
		C848.3,564.7,847.7,565.3,846.7,565.2z"/>
	<path fill-rule="evenodd" clip-rule="evenodd" fill="#20428B" d="M257.5,649.2c0-0.9,0-1.7,0-2.6c0-0.9-0.3-1.8-1.2-2.1
		c-1.1-0.3-1.6,0.6-2,1.3c-1.8,3.5-3.5,7-5.2,10.6c-0.7,1.5-1.4,3-2.3,4.4c-4.6,8-8.8,16.3-13,24.6c-1.1,2.1-3.4,3.1-5.6,2.1
		c-1.8-0.8-1.8-2.1-1-3.7c3.9-7.2,7.9-14.5,11.7-21.8c5.2-10,10.3-20,15.4-30c0.7-1.4,1.6-2.5,3.4-2.4c1.9,0.2,3.5,0.8,4.1,2.9
		c0.7,2.4,1,4.8,1.2,7.2c0.7,10.3,1.2,20.6,3,30.8c0.9,5.2,2.1,10.5,4.1,15.5c0.6,1.5,1.9,3.3-0.3,4.5c-1.6,0.9-4.5-0.3-5.4-2.2
		c-0.9-2-1.6-4.1-2.3-6.2c-1.8-5.5-2.7-11.2-3.3-16.9c-0.6-5.3-1.1-10.7-1.6-16C257.4,649.2,257.5,649.2,257.5,649.2z"/>
	<path fill-rule="evenodd" clip-rule="evenodd" fill="#20428B" d="M1134.4,574c0.1,0.4,0,0.8,0.2,1.1c1.4,3.1,0.2,5.4-2.2,7.5
		c-1.8,1.6-2.9,1.4-3.3-1.1c-0.8-4.1-2.2-8-3.1-12.1c-1.8-7.6-3.9-15-6.3-22.4c-1.2-3.8-3.2-7.3-4-11.3c-0.3-1.4-0.7-2.7,0.6-3.7
		c1.4-0.9,2.5,0.1,3.6,0.8c8.2,5.6,16.4,11.2,24.7,16.5c2.2,1.4,4.7,2.1,6.8,3.8c3.1,2.5,2.1,7.7-1.7,9.2c-1.2,0.5-2.1-0.2-3-0.8
		c-1-0.8-2-1.1-3-0.1c-2.8,3.1-5.7,6.2-8.4,9.3C1134.7,571.7,1134.5,572.9,1134.4,574z M1128.7,552.4c0.8,2.6,1.7,5.4,2.7,8.1
		c0.3,1,1.2,1,1.9,0.5c0.9-0.6,1.5-1.4,2.1-2.2c0.7-1.2,1.8-2.6,0.5-3.8c-1.6-1.5-3.2-3-5.2-4
		C1129.3,550.1,1128.6,550.7,1128.7,552.4z"/>
	<path fill-rule="evenodd" clip-rule="evenodd" fill="#20428B" d="M772.1,733.4c3.5-0.5,6.7,0.7,9.2,4c1.8,2.4,3,5.1,2.7,8
		c-0.7,6.8-3.5,12.3-10,15.4c-2.6,1.3-5.2,2.3-7.9,2.9c-2,0.4-3.1,1.7-3,3.9c0.1,1.6,0.1,3.2,0.1,4.7c0,2.1-1,3.4-3.1,3.9
		c-1,0.2-2,0.5-3,0.6c-1.6,0.3-2.4-0.4-2.5-2c-0.3-5.5-0.6-11-0.9-16.5c-0.4-5.5-0.7-11-1.2-16.5c-0.4-4.3,0.2-4.9,4.3-5.9
		c3.3-0.8,6.5-1.8,9.8-2.4C768.3,733.3,769.9,733.3,772.1,733.4z M768.3,740.9c-0.8,0-1.7-0.1-2.6,0c-3.5,0.6-4.1,1.3-3.9,4.9
		c0.2,2.8,0.5,5.6,0.5,8.5c0,1.5,0.9,2.8,2.7,2.4c3.1-0.6,6-2,8-4.6c1.8-2.4,2.3-5.4,1-8.2C773,741.5,771,740.3,768.3,740.9z"/>
	<path fill-rule="evenodd" clip-rule="evenodd" fill="#20428B" d="M595,610.3c-0.1-1.8,1-2.7,2.6-3.2c8.4-2.4,16.8-4.7,25.2-7.1
		c3.8-1.1,4.9-0.4,5.7,3.3c0.4,2-0.3,3.2-2.1,3.6c-6.8,1.5-13.3,3.9-20,5.6c-4,1-4.2,1.3-3.4,5.4c2.1,10.4,5.2,20.6,7.3,31
		c0.5,2.3,1.4,3,3.9,2.4c3.2-0.7,6.4-1.2,9.5-2.7c3.8-1.9,8.1-1.9,12.1-3c1.7-0.5,3.4-0.3,3.9,1.9c0.5,2.2-0.4,4-2.6,4.6
		c-3.8,1.2-7.8,2.1-11.6,3.3c-4.8,1.5-9.6,2.8-14.5,4.1c-3.6,0.9-4.7,0.6-5.4-3c-2.8-13.5-6-26.9-9.1-40.3
		C596,614.2,595.1,612.3,595,610.3z"/>
	<path fill-rule="evenodd" clip-rule="evenodd" fill="#20428B" d="M900.6,466.8c5.5,0.3,10.4,3.8,14.6,8.5c3.1,3.4,5.4,7.5,6.7,11.9
		c2.8,9.6,1.4,19.5-7.6,26.3c-3.3,2.5-7,2.7-11,1.8c-6.8-1.7-11.6-5.8-15.3-11.5c-4.3-6.5-6-13.7-5.1-21.3
		C883.9,473.3,890.9,466.6,900.6,466.8z M917.5,494.5c0-8-3.3-15.2-11.8-19.5c-7.2-3.7-14.1-1-16.3,7.2c-1.6,5.8-0.2,11.3,2.3,16.5
		c2.6,5.4,6.8,8.7,12.7,9.9c3.9,0.8,7.3,0.3,9.8-3.3C916.4,502.2,917.6,499,917.5,494.5z"/>
	<path fill-rule="evenodd" clip-rule="evenodd" fill="#20428B" d="M944.1,672.2c0.1,1.3-0.5,2-1.5,2.7c-2.9,1.9-6.2,3.1-9.3,4.6
		c-3.5,1.6-4.2,8.8-1.2,11.2c0.8,0.6,1.6,0.4,2.5,0c2.3-1.1,4.6-2.2,6.8-3.2c2.4-1.1,3.4-0.9,4.4,1.3c1.3,2.7,0.8,4.5-1.5,5.6
		c-2.4,1.1-4.8,2.1-7.1,3.2c-2.7,1.3-3.6,6.9-1.4,9c0.7,0.7,1.5,0.7,2.4,0.3c3.6-1.7,7.3-3.3,10.9-5.1c1.8-0.9,3.1-0.9,4.2,1
		c1.3,2.2,1.3,3.8-0.5,5c-2.1,1.3-4.2,2.4-6.5,3.4c-4.7,2-9.3,4.2-13.9,6.5c-2.6,1.3-3.4,0.7-4-2.1c-1-4.7-2-9.3-3.1-14
		c-1.6-6.8-3.6-13.5-5.3-20.2c-0.5-1.8-0.2-3.2,1.9-3.9c5.5-2,10.2-5.6,15.7-7.5c0.4-0.1,0.7-0.4,1-0.6c1-0.7,1.9-2.1,3.3-1.3
		C943.3,668.7,943.8,670.5,944.1,672.2z"/>
	<path fill-rule="evenodd" clip-rule="evenodd" fill="#20428B" d="M183.8,763.7c-0.9,0.1-2.1,0-3.1-0.5c-5-2.7-10.7-3.1-16-4.8
		c-4.6-1.4-5.2-3-2.7-7.2c2.4-4,4.5-8.1,6.7-12.2c2.9-5.3,5.7-10.6,8.6-15.9c1-1.7,2.3-2.6,4.5-1.8c6.1,2.4,12.4,3.9,18.7,5.8
		c1.7,0.5,3.1,1.2,2.5,3.5c-0.8,2.6-2.3,3.8-4.6,3.2c-4.1-1.1-8.4-1.8-12.4-3.6c-1.1-0.5-2.2-0.3-2.9,0.9c-0.2,0.3-0.4,0.5-0.5,0.8
		c-3.6,5.8-3.1,7.1,3.4,8.8c1.1,0.3,2.1,0.7,3.1,1.1c1.9,0.7,3.1,1.9,2.2,4.2c-1.1,2.7-2.4,3.4-4.9,2.5c-2.7-0.9-5.4-1.7-8.1-2.6
		c-1.5-0.5-2.7-0.2-3.4,1.2c-0.2,0.4-0.5,0.8-0.7,1.2c-2.4,4.3-2.1,5.1,2.7,6.5c2.7,0.8,5.5,1.5,8.2,2.2c1.6,0.4,3.1,0.7,2.7,3
		C187.4,762.6,186.3,763.7,183.8,763.7z"/>
	<path fill-rule="evenodd" clip-rule="evenodd" fill="#20428B" d="M320.7,685.8c6.6,0.3,12.5-1,18.4-1c1.9,0,2.2-1.5,2.3-3
		c0.2-3.8,0.4-7.6,0.6-11.4c0.4-8,1.6-15.8,2.8-23.7c0.2-1.1,0.9-1.8,1.5-2.7c0.7-1.1,1.6-1.7,3-1.1c1.3,0.5,1.9,1.5,1.7,2.8
		c-0.4,3.6-0.9,7.2-1.4,10.8c-0.8,6-0.8,12-1.4,17.9c-0.4,3.7-0.6,7.3-0.1,11.1c0.3,2.5-1,3.5-3.4,3c-1.4-0.3-2.7,0.2-4,0.2
		c-7.7,0.5-15.4,0.9-23.2,1.4c-2.3,0.1-4.5,0.4-6.8,0.5c-2.9,0.1-3.8-0.8-3.8-3.8c0-4.9,0.7-9.7,1.5-14.6c1.1-7,1.6-14.1,3.2-21
		c0.6-2.8,1.2-5.5,1.8-8.3c0.5-2.5,1.7-3.3,4-2.8c2.3,0.5,2.1,2.4,1.8,4c-1,4.3-1.8,8.6-2.4,13c-0.9,6.2-1.5,12.4-2.2,18.5
		c-0.3,2.4-0.7,4.8-0.9,7.3c-0.2,2.7,0.4,3.2,3.1,3.1C318.3,685.9,319.8,685.8,320.7,685.8z"/>
	<path fill-rule="evenodd" clip-rule="evenodd" fill="#20428B" d="M850.2,731c0,1.2-0.7,2.3-2.4,2.8c-2.5,0.8-5,1.8-7.6,2.6
		c-1.3,0.4-2.5,1-2.5,2.4c-0.1,2-0.3,4.2,1.2,5.8c0.7,0.8,1.7,0.5,2.7,0.2c3.3-1.1,6.6-2.2,9.8-3.4c2.8-1,4.1-0.6,4.8,1.2
		c1,2.6,0.3,4.5-2.4,5.5c-6.6,2.3-13.2,4.6-19.9,6.8c-1.9,0.6-3.1,0.3-3.7-2c-0.6-2.5-0.8-5-1.1-7.5c-0.7-5.4-1.2-10.8-2-16.1
		c-0.5-3.4-1.3-6.8-1.7-10.2c-0.2-1.7,0.3-2.7,1.7-3.5c2.9-1.6,6-2.9,9.2-3.6c3.5-0.8,6.5-2.7,9.9-3.7c2.1-0.7,3.4-0.2,4.2,1.8
		c0.9,2.3,0.2,4.6-1.8,5.1c-3.9,1.1-7.4,3.3-11.4,4.4c-2.1,0.5-2.9,2-2.2,4.2c0.1,0.2,0.1,0.4,0.2,0.7c1,5.2,1.4,5.4,6.5,3.8
		c1.3-0.4,2.6-0.8,3.8-1.2C849.1,726,850.3,726.9,850.2,731z"/>
	<path fill-rule="evenodd" clip-rule="evenodd" fill="#20428B" d="M549.7,805.5c-2.6,0.8-4.1-0.6-5.1-2.8c-0.6-1.2-1.6-1.7-2.8-1.8
		c-4.4-0.3-8.7,0-12.9,1.2c-1.6,0.5-2.7,1.6-3.7,2.8c-1.6,1.9-5.6,2.7-7.8,1.6c-1.4-0.7-1.3-1.5-0.6-2.7c6.6-9.7,12.3-20,18.6-29.9
		c1.1-1.7,2.2-3.5,3.4-5.1c0.7-0.9,1.6-1.7,2.8-1.5c1.3,0.2,1.4,1.3,1.8,2.3c2.8,6.2,4.2,12.8,6.7,19c1.7,4.2,3,8.6,4.5,12.9
		c0.9,2.7-0.2,4.3-3.2,4.2C550.8,805.7,550.3,805.6,549.7,805.5z M536.6,794c1.2,0,2,0.1,2.8,0c1.1-0.1,1.7-0.9,1.5-2
		c-0.4-1.8-0.8-3.7-1.7-5.4c-0.7-1.2-1.4-1.2-2.1-0.2c-0.8,1.2-1.5,2.6-2.3,3.9c-0.6,1-1.5,2-0.8,3.2
		C534.6,794.8,536,793.9,536.6,794z"/>
	<path fill-rule="evenodd" clip-rule="evenodd" fill="#20428B" d="M252.9,780.4c-6.5-0.1-12.6-2.1-18.4-4.9c-2.2-1.1-2.3-2.3-0.7-4
		c3.3-3.4,4.1-3.4,8.3-0.9c4,2.3,8.4,3.5,13.1,2.5c2.4-0.5,3-2.1,1.8-4.3c-0.9-1.6-2.3-2.8-4-3.6c-2.1-1-3.9-2.3-5.7-3.8
		c-6.7-6-3.1-14.5,3.8-17.3c7.5-2.9,14.7-0.9,21.8,2.1c1.8,0.8,2.5,2,1.4,4c-1.4,2.5-3,3.4-5,2.6c-3.9-1.6-7.7-3.6-12.2-2.8
		c-2.9,0.5-3.7,2.2-1.9,4.7c1.2,1.6,2.8,2.7,4.5,3.9c1.1,0.8,2.2,1.5,3.4,2.2c3.7,2.3,5.8,5.3,4.8,9.9c-1,4.7-4.9,8.5-9.3,9.3
		C256.7,780.2,254.8,780.4,252.9,780.4z"/>
	<path fill-rule="evenodd" clip-rule="evenodd" fill="#20428B" d="M664.1,785.6c0-8.9-0.1-17.8,0-26.8c0-3.1,0.9-3.7,4-4.2
		c6.3-1.1,12.6-2,18.8-3.7c1.8-0.5,3,0.3,3.6,1.9c0.7,1.9-0.5,4.5-2.3,5.4c-2.7,1.2-5.7,1-8.5,1.7c-0.8,0.2-1.5,0.4-2.3,0.5
		c-1.6,0.1-3.5-0.1-4,1.7c-0.6,2.3-0.8,4.9,0.1,7.2c0.5,1.3,1.9,1.2,3.1,1c2.2-0.4,4.3-0.8,6.5-1.2c2.2-0.4,3.4,0.6,3.7,2.8
		c0.3,2.5-0.6,3.9-2.9,4.2c-2.7,0.4-5.4,0.3-8,0.9c-3.3,0.8-4.9,5-3.1,7.9c0.7,1,1.6,1.3,2.7,1c3.4-1,7-1.1,10.5-1.7
		c2.7-0.5,3.9,0.2,4.4,2.6c0.5,2.1-0.3,3.3-2.8,4.1c-4.6,1.6-9.5,1.1-14.2,2.3c-2.2,0.5-4.5,1-6.7,1.3c-2.4,0.3-3.2-0.5-3.2-2.9
		c0-2,0-4,0-5.9C663.7,785.6,663.9,785.6,664.1,785.6z"/>
	<path fill-rule="evenodd" clip-rule="evenodd" fill="#20428B" d="M343,771.5c-0.1,1.9,0.8,2.9,2.7,3.2c2.1,0.3,4.2,0.7,6.3,0.9
		c2.3,0.3,3.1,1.3,2.9,3.7c-0.3,2.2-1.5,3.2-3.7,3c-3-0.4-6-0.7-8.9-1.2c-1.8-0.3-2.9,0.3-3.5,2c-0.3,0.9-0.8,1.7-1.1,2.6
		c-0.8,2.3-0.1,3.5,2.2,3.9c3.7,0.6,7.5,1.1,11.3,1.6c1.8,0.2,3,0.9,2.8,3c-0.3,2.5-1.6,4.1-3.6,3.9c-5.5-0.6-11-1.1-16.4-2.4
		c-1.9-0.5-3.9-0.8-5.8-1c-1.9-0.2-2.5-1.1-1.9-2.9c2.5-7.9,5.5-15.7,8.4-23.5c0.9-2.6,1.8-5.2,2.6-7.8c1-3.4,2-3.9,5.4-3.3
		c4.2,0.7,8.3,1.7,12.6,1.9c2.7,0.1,5.4,0.8,8.1,1.3c0.7,0.1,1.3,0.7,1.4,1.5c0.3,1.5-2.9,4.9-4.5,4.7c-3.5-0.4-7-0.9-10.6-1.2
		C345.8,765.1,343,767.5,343,771.5z"/>
	<path fill-rule="evenodd" clip-rule="evenodd" fill="#20428B" d="M552.6,621.2c0.1-1.7,0.4-3.1,2.3-3.5c5-0.9,9.8-2.9,14.8-3.8
		c4-0.7,7.8-1.8,11.8-2.7c2.2-0.5,3.6,0.5,4.2,3.1c0.5,2.2-0.3,3.5-2.5,4.1c-7,1.7-13.9,3.5-20.9,5.2c-2.4,0.6-3.3,1.9-2.6,4.1
		c1.3,4.2,1.7,8.7,2.6,13c1.3,6.2,2.6,12.5,3.9,18.7c0.4,1.7,1.5,2.4,3.2,2.1c7.2-1.3,14.4-2.7,21.6-4.1c3.4-0.7,5,0.4,4.7,3.2
		c-0.2,1.7-1.3,2.5-2.8,2.8c-5.3,1.1-10.5,2.1-15.8,3c-4.1,0.7-8.2,1.4-12.4,2.1c-2.6,0.4-3.4,0-3.7-2.6c-1.2-9.8-3.6-19.4-5.3-29.1
		c-0.8-4.8-2.5-9.4-3-14.3C552.7,622,552.6,621.5,552.6,621.2z"/>
	<path fill-rule="evenodd" clip-rule="evenodd" fill="#20428B" d="M762.7,552.2c2,0.4,3,1.8,3.6,3.4c0.6,1.4-0.5,2.3-1.6,3
		c-4.4,2.8-9.2,4.7-13.9,6.9c-2.4,1.1-4.4,2.9-7.2,3.5c-1.6,0.3-1.7,2.2-0.5,3.9c4,5.8,8.1,11.6,12.2,17.4c1.5,2.1,2.8,4.2,4.4,6.1
		c1.8,2.2,3,2.8,5.4,1.3c6.7-4.1,14-6.9,21.1-10.1c1.7-0.8,3.1-0.6,4,1.1c1,1.8,0.6,3.4-1.1,4.2c-2.8,1.4-5.5,2.9-8.4,4.2
		c-6.1,2.7-12.2,5.6-18.4,8c-2.8,1.1-3.3,0.9-5.1-1.6c-2.3-3.4-5-6.5-7-10c-4.7-8-10.6-15.1-15.8-22.6c-1.8-2.7-1.3-3.9,1.6-5.3
		c6.9-3.4,13.8-6.7,20.3-10.7C758.2,553.8,760.4,553,762.7,552.2z"/>
	<path fill-rule="evenodd" clip-rule="evenodd" fill="#20428B" d="M478.5,638c0,1.1-0.6,2.2-2.6,2.3c-5.7,0.3-11.2,1.6-16.8,2.7
		c-1.6,0.3-3.2,0.6-4.9,0.7c-3,0.2-4,1.7-3.5,4.6c1.7,8.8,3.2,17.7,3.4,26.7c0,2.6,1.2,3.4,3.9,3.2c6.5-0.7,13-1.3,19.5-2
		c1.2-0.1,2.3-0.5,3.5-0.7c1.4-0.3,2.8-0.2,3.3,1.4c0.4,1.7-0.3,3.1-2,3.4c-1.8,0.4-3.7,0.5-5.6,0.7c-4.7,0.4-9.3,1.7-13.9,2.8
		c-3.6,0.9-7.2,1.8-10.8,2.5c-2.1,0.4-2.9-1-3.1-2.7c-0.7-5.6-1.4-11.1-1.8-16.7c-0.4-6.1-1.7-12-2.7-18c-0.4-2.4-0.7-4.9-0.9-7.3
		c-0.2-2.7,0.7-3.4,3.3-3.7c5.6-0.7,11.3-1.4,16.9-2.3c3.6-0.6,7.1-1.4,10.7-2C477,633.1,478.5,634.5,478.5,638z"/>
	<path fill-rule="evenodd" clip-rule="evenodd" fill="#20428B" d="M145,713.1c-0.8,4.8-0.4,10.1-1.3,15.3c-0.2,1.4-0.9,3.5,0.7,4.4
		c1.5,0.8,2.4-1.1,3.5-1.9c5.1-4.2,10.2-8.4,15.3-12.7c2.5-2,5.6-2.2,8.2-0.5c1,0.7,1.2,1.5,0.7,2.7c-0.5,1.2-1.4,2-2.5,2.8
		c-4.9,3.6-9.4,7.6-14.1,11.5c-5.3,4.4-10.9,8.6-16.4,12.8c-1.2,0.9-2.5,1.5-3.9,0.7c-1.6-0.9-1.6-2.4-1.5-4
		c0.8-11.2,1.7-22.4,1.8-33.6c0-3.2,1.8-4.3,4.8-3.2c0.4,0.2,0.9,0.3,1.3,0.5C144.8,709,145.1,709.3,145,713.1z"/>
	<path fill-rule="evenodd" clip-rule="evenodd" fill="#20428B" d="M676.9,637.5c0.7-6.3,1.1-11.8,1.9-17.3c1.3-9.6,1.6-19.3,2.2-29
		c0.2-3.1,0.5-5.9,4.1-7.1c1.6-0.5,2.7-0.3,3.7,1c5.9,8,12.1,15.7,18.5,23.3c3.8,4.4,7.1,9.3,10.6,13.9c0.9,1.2,1.8,2.4,0.3,3.7
		c-1.3,1.2-3.9,1.2-4.9-0.2c-2.5-3-5-6.1-7.4-9.3c-3.6-4.7-6.9-9.6-10.8-14c-1.9-2.1-3.8-4.3-5.5-6.6c-0.5-0.7-1.1-1.5-2.1-1.1
		c-0.9,0.3-0.8,1.3-0.8,2.1c-0.4,10.2-1.3,20.3-2.8,30.3c-0.4,2.4-0.4,4.9-0.5,7.3c-0.1,2.3-1,3.8-3.4,4.4
		C677.9,639.7,676.9,639,676.9,637.5z"/>
	<path fill-rule="evenodd" clip-rule="evenodd" fill="#20428B" d="M302.3,750.5c2.8,1,6,1.4,9.2,1.8c6.2,0.8,12.3,1.9,18.4,3.2
		c1.5,0.3,2.9,0.6,2.8,2.5c-0.1,2-2.4,4.1-4.1,3.7c-2.4-0.6-4.8-0.6-7.3-0.9c-1.9-0.2-3.2,0.4-3.8,2.3c-2.8,8.7-6.3,17.1-9.8,25.5
		c-1,2.3-3.4,2.8-6.9,1.6c-2.3-0.8-2.2-2.4-1.5-4.2c1.7-4.7,3.4-9.4,5.3-14c1.4-3.3,2.2-6.9,4.1-10c0.9-1.5,0.3-3.1-1.6-3.4
		c-1.9-0.3-3.8-1.1-5.8-1.2c-1.7,0-3-1-3-2.9C298.3,752.8,300.5,750.5,302.3,750.5z"/>
	<path fill-rule="evenodd" clip-rule="evenodd" fill="#20428B" d="M392.4,644.8c-0.2,1.7-1,3.2-2.8,4.1c-5,2.4-10.2,4.1-15.4,6
		c-2.5,0.9-3,2.1-1.3,4.1c1.8,2.1,4.1,3.4,6.3,5c2.2,1.7,2.3,3.2,0.2,4.9c-2.2,1.7-4.6,3.4-6.9,5c-0.9,0.7-1.9,1.4-1.7,2.6
		c0.2,1.5,1.6,1.4,2.6,1.6c4.9,1.1,9.7,2,14.6,3c1.6,0.3,4.2,0.3,3.8,2.5c-0.4,2.3-2.6,1-4.2,0.9c-6.9-0.6-13.6-1.8-20.4-2.9
		c-2.2-0.3-4.2-1.1-6.5-1.3c-0.9-0.1-1.8-0.4-2-1.4c-0.2-1,0.6-1.5,1.3-2.1c2.9-2.8,6.6-4.3,9.5-6.9c1.9-1.8,2-2.8,0.3-4.7
		c-2.4-2.7-5.7-4.3-8.1-6.9c-0.9-1-2.1-1.9-1.6-3.4c0.4-1.4,1.7-1.7,3-2c3.7-0.9,7.1-2.5,10.6-4c5.3-2.3,10.9-3.7,16.1-6.2
		C391.3,641.9,392.3,642.8,392.4,644.8z"/>
	<path fill-rule="evenodd" clip-rule="evenodd" fill="#20428B" d="M550.7,670.6c-1.6-0.1-2.5-0.9-3.3-2.1c-2.9-4.2-5.9-8.4-8.8-12.6
		c-0.6-0.9-1.2-2.1-2.5-1.8c-1.2,0.3-0.9,1.6-1.2,2.6c-1.8,5.1-3.1,10.4-5.5,15.3c-1,2.1-3.1,2.1-4.8,2.4c-1.4,0.2-2-1.8-1.1-3.8
		c1.4-3,2.7-6,3.5-9.2c1.5-5.8,3.3-11.5,4.6-17.3c1.4-6.2,3.1-12.4,4-18.7c0.3-2.3,1.7-3.7,4-4.1c2.3-0.4,3.1,0.5,2.6,2.7
		c-1.3,5.6-2.5,11.2-3.7,16.8c-0.5,2.4,0,4.3,1.4,6.4c4.2,6.4,9.5,12,13.3,18.7c0.6,1.1,1.7,2.1,1,3.4
		C553.3,670.6,551.7,670,550.7,670.6z"/>
	<path fill-rule="evenodd" clip-rule="evenodd" fill="#20428B" d="M128.4,651.7c0.7-4.3,1.3-9.1,2.1-13.8c0.7-4,0.2-5-3.7-6.2
		c-1.1-0.3-2.3-0.7-3.3-1.2c-2-0.9-2.3-2.5-1.7-4.3c0.7-2,2.2-1.7,3.7-1.2c1.2,0.4,2.4,0.9,3.5,1.3c2.6,0.9,4,0.1,4.6-2.6
		c0.8-4.2,1.6-8.3,2.4-12.5c0.4-2,0.9-4,1.5-5.9c0.4-1.4,1.3-2.1,2.8-1.9c1.6,0.2,2.7,0.8,2.9,2.6c0,0.5,0.1,1-0.1,1.4
		c-1.6,4.6-1.4,9.5-3.2,14c-0.4,1-0.6,2.1-0.7,3.2c-0.5,3.8-0.1,4.2,3.6,5.2c1.1,0.3,2.2,0.5,3.1,1c2.2,1.1,2.6,4.9,0.8,6.5
		c-0.8,0.7-1.6,0.5-2.4,0.2c-1.2-0.5-2.4-1.1-3.7-1.5c-2.4-0.7-3.7,0.2-4.1,2.7c-0.8,4.8-1.7,9.6-2.7,14.4c-0.3,1.3-0.1,3.1-2.1,3.2
		C130.1,656.4,128.4,654.2,128.4,651.7z"/>
	<path fill-rule="evenodd" clip-rule="evenodd" fill="#20428B" d="M1093.9,612.9c0.1,6.1-4.2,9.8-9.2,13.1c-1,0.6-1.8,0.3-2.5-0.5
		c-1.9-2-2-5.4,0-7.3c4-3.6,4-5.5,1.5-10.9c-3.6-7.7-8.2-14.9-12.1-22.4c-0.9-1.8-0.9-3.2,0.4-4.7c3.7-4.3,4.7-4.3,7.3,0.9
		c3.9,7.8,8.5,15.1,12.4,22.8C1093.1,606.6,1094,609.4,1093.9,612.9z"/>
	<path fill-rule="evenodd" clip-rule="evenodd" fill="#20428B" d="M418.2,652.2c0,2.1,0,4.4,0,6.7c0,2.8,0.8,3.6,3.5,3.5
		c2.1,0,4.2-0.3,6.4-0.4c1.8-0.1,3,0.7,3.2,2.4c0.2,1.9-1.1,2.7-2.8,2.8c-1.9,0.1-3.8,0-5.7,0.1c-3,0.2-3.9,1.3-3.7,4.2
		c0.2,3.1,0.6,6.3,0.9,9.4c0.2,1.6,0.6,3.3-1.6,3.8c-2.7,0.6-4.7-0.5-5.2-2.8c-0.6-3.2-1.1-6.4-1.4-9.6c-0.4-3.6-1-4.2-4.6-4.1
		c-1.9,0.1-3.8,0.3-5.7,0.5c-1.5,0.1-2.5-0.3-2.7-1.9c-0.2-1.5,0.3-2.6,1.8-3.2c2.1-0.8,4.2-0.3,6.3-0.4c2.9-0.1,3.8-0.9,3.9-3.8
		c0.2-4,0.3-8,0.5-12.1c0.2-3.9,1.4-5.3,4.2-5.4c2-0.1,3,0.9,2.9,2.8c0,1.2-0.1,2.4-0.2,3.5C418.4,649.6,418.3,650.8,418.2,652.2z"
		/>
	<path fill-rule="evenodd" clip-rule="evenodd" fill="#20428B" d="M108.8,738.9c-2-0.2-3.8-0.8-5.4-1.9c-1.5-1.1-0.7-2.6-0.1-3.8
		c2.3-4.1,4.7-8.2,7.1-12.2c3.4-5.8,6.9-11.6,10.3-17.4c1.3-2.1,2.6-2.7,4.9-1.7c0.9,0.4,1.9,0.8,2.8,1.3c1.4,1,2,2.3,0.8,3.8
		c-3.2,4.4-5.3,9.4-8.2,14c-3.3,5.4-6.6,10.9-9.8,16.4C110.7,738.5,109.8,738.8,108.8,738.9z"/>
	<path fill-rule="evenodd" clip-rule="evenodd" fill="#20428B" d="M920.1,720.5c0,1.8-3,4.1-5.7,4.4c-2.4,0.2-2.8-1.5-3.1-3.2
		c-2.4-10.9-4.9-21.8-7.4-32.8c-0.5-2.4,1.5-4.7,4.7-5.4c1.9-0.4,2.7,0.5,3.5,3.2c1.9,7,3.4,14.2,5.2,21.2c0.9,3.5,1.1,7.1,2.6,10.4
		C920,718.9,920,719.7,920.1,720.5z"/>
	<path fill-rule="evenodd" clip-rule="evenodd" fill="#20428B" d="M275.9,786c-1.2-0.4-3-0.8-4.6-1.6c-1.1-0.6-0.6-1.8-0.3-2.8
		c2-6,5.1-11.6,7.3-17.5c1.6-4.4,3.6-8.7,5.4-13c1.2-2.9,6.8-3.7,8.8-1.4c0.8,0.9,0.7,1.9,0.2,2.9c-2.9,5.8-4.6,12-7.4,17.8
		c-2.1,4.3-3.6,8.9-5.6,13.2C279.1,785,278.2,786.1,275.9,786z"/>
	<path fill-rule="evenodd" clip-rule="evenodd" fill="#20428B" d="M151.5,653.6c-0.2-3.1,1.4-5.9,3.5-8.6c4.5-5.6,11-2.5,13.9,1.4
		c3.2,4.4,2.6,13.9-0.4,18.5c-2.9,4.4-10.2,5-14-0.5C152.4,661.4,151.2,657.7,151.5,653.6z M166.9,655.4c-0.3-2.1-0.9-4-2.4-5.5
		c-2.5-2.5-5.3-2.3-7.4,0.6c-2.5,3.4-2.1,7.4,0.9,10.5c1.8,1.8,4,2,5.9,0.4C165.8,659.9,166.7,657.8,166.9,655.4z"/>
	<path fill-rule="evenodd" clip-rule="evenodd" fill="#20428B" d="M290.7,670.6c4.4,0,8.1,2.6,10,7.1c1.6,3.7,0.7,7.5-2.4,10.6
		c-4.2,4.2-14.2,3.5-17.8-1.2c-1.6-2-1.3-4.4-1-6.6C280.1,675.9,285.6,670.3,290.7,670.6z M289.7,687.3c3.3,0,6.6-2.8,6.6-5.5
		c0-2.7-3.3-5.9-5.9-5.8c-2.9,0.1-5.9,3.4-5.9,6.4C284.6,685.3,286.7,687.3,289.7,687.3z"/>
	<path fill-rule="evenodd" clip-rule="evenodd" fill="#20428B" d="M893.7,527.5c0,4.2-2.1,7.2-5.9,8.8c-3.3,1.5-6.2,0.5-9-1.7
		c-5.2-4-6.8-12.4-1.6-17.4c2.9-2.8,7.3-3.1,10.6-0.9C891.9,519,893.9,522.6,893.7,527.5z M883.3,519.9c-2.2,0-4.4,2.9-4.4,5.6
		c0,2.9,3.4,6.6,6,6.6c2,0,4.5-3,4.5-5.4C889.4,523.4,886.1,519.8,883.3,519.9z"/>
	<path fill-rule="evenodd" clip-rule="evenodd" fill="#20428B" d="M749,606.1c0.3,5.7-4.2,10.7-11.2,10.6c-4.1,0-9.8-6-9.8-11.6
		c-0.1-5,5.2-9.2,9.4-9.1C744.4,596,749,599.9,749,606.1z M744.1,605.8c0-2.5-3.1-5.3-6-5.3c-2.7,0-5.4,2.9-5.4,5.8
		c0,2.6,3.6,6.1,6.1,6C741,612.2,744.2,608.3,744.1,605.8z"/>
	<path fill-rule="evenodd" clip-rule="evenodd" fill="#20428B" d="M499.2,651.1c-6.3,0-11.1-4.6-10.7-11.2c0.3-5.1,3.1-9.7,10.5-9.7
		c6.1,0,10.7,4.4,10.7,10.2C509.7,646.4,506.7,651.8,499.2,651.1z M493,640.6c-0.1,3.1,2.7,6.3,5.5,6.3c3.9,0,6.8-2.7,6.7-6.4
		c0-3.2-3.6-6.7-6.9-6.7C495.9,633.9,493,637.4,493,640.6z"/>
	<path fill-rule="evenodd" clip-rule="evenodd" fill="#20428B" d="M492.5,668.3c0.2-4.8,4.2-10.6,11.2-10.5c5,0,10.5,5.1,10.4,9.8
		c-0.1,6.6-4.9,10.1-11.1,10C496.6,677.5,492.8,674.9,492.5,668.3z M503.1,674.1c3.3,0,6.2-2.9,6.3-6.2c0-2.8-3.1-5.8-6.1-5.9
		c-2.8-0.1-6.4,3.4-6.4,6C497,671.1,500.1,674.1,503.1,674.1z"/>
	<path fill-rule="evenodd" clip-rule="evenodd" fill="#20428B" d="M638.3,601.8c0.1-4.1,2.1-7,5.8-8.3c4.2-1.5,7.4-0.3,10.4,2.7
		c5.6,5.6,1.6,15.5-5.5,16.3c-0.9,0.1-1.7,0.1-2.6-0.1C642.4,611.3,638.2,606,638.3,601.8z M652.1,603.5c0-3.7-2.3-6.5-4.9-6.8
		c-1.8-0.2-3.7,1.7-4.2,4.4c-0.3,1.7,0.6,3.1,1.5,4.3c1.1,1.4,2.4,2.6,4.4,1.9C651,606.5,652,604.9,652.1,603.5z"/>
	<path fill-rule="evenodd" clip-rule="evenodd" fill="#20428B" d="M647.7,632.6c0-4.1,2.1-7,5.8-8.3c4.2-1.5,7.4-0.3,10.4,2.7
		c5.6,5.6,1.6,15.5-5.5,16.3c-0.9,0.1-1.7,0.1-2.6-0.1C651.8,642.1,647.7,636.8,647.7,632.6z M661.5,634.3c0-3.7-2.3-6.5-4.9-6.8
		c-1.8-0.2-3.7,1.7-4.2,4.4c-0.3,1.7,0.6,3.1,1.5,4.3c1.1,1.4,2.4,2.6,4.4,1.9C660.5,637.3,661.5,635.7,661.5,634.3z"/>
	<path fill-rule="evenodd" clip-rule="evenodd" fill="#20428B" d="M929.8,459.3c-0.4,2.1-0.5,5-3.3,6.8c-3.6,2.4-6.2,2-10.4-1.5
		c-3.1-2.6-4.4-6.3-4.7-10.3c-0.2-2.5,2.6-6.5,5.1-7.5c2.4-1,6.7-0.2,8.6,1.7C928,451.4,929.8,455.2,929.8,459.3z M926.1,458.2
		c-0.1-3.3-1.9-5.5-4.6-7.1c-2.1-1.2-3.4-0.9-4.8,1.1c-1.8,2.5-1,6.1,1.9,9.1c1.4,1.5,3.1,2.7,5.2,1.7
		C925.7,462,926.1,460.1,926.1,458.2z"/>
	<path fill-rule="evenodd" clip-rule="evenodd" fill="#20428B" d="M927.3,479.3c0.2-3,1.3-5.9,3.6-8.3c2.3-2.4,6.8-1.6,9.6,1.7
		c2.1,2.4,3.6,5.2,3.9,8.4c0.1,1.6-0.2,3-1.3,4.2c-2.3,2.5-4.1,6-8.5,4.9c-3.4-0.9-6.7-5.2-7.1-9.2
		C927.4,480.5,927.3,480,927.3,479.3z M940.2,480.6c0-0.4,0-0.8,0-1.2c-0.2-1.9-3.2-5.3-4.9-5.3c-2,0-3,1.6-3.7,3.2
		c-1.2,2.6,0.5,7.4,2.9,8.5C937.3,487,940.2,484.3,940.2,480.6z"/>
	<path fill-rule="evenodd" clip-rule="evenodd" fill="#20428B" d="M659.4,614.8c0.8,0.1,1.6,0.2,1.9,1.1c0.3,1.2-0.2,2.1-1.2,2.5
		c-2.2,1-4.5,1.9-6.8,2.6c-2.6,0.8-5.3,1.3-8,1.9c-1.1,0.3-2.1,0.1-2.5-1.1c-0.4-1.2,0.4-2.1,1.4-2.4c4.9-1.4,9.8-2.8,14.6-4.5
		C658.9,614.9,659.2,614.9,659.4,614.8z"/>
	<path fill-rule="evenodd" clip-rule="evenodd" fill="#20428B" d="M206.4,649.6c0.1,2.3-0.3,4.4-1.5,6.3c-1.2,2-3.1,3.1-5.4,2.6
		c-2.9-0.6-3.9-3-4.5-5.5c-0.9-3.6,0.8-7.6,3.9-9.8c2.8-1.9,6.6,0.1,7.3,4C206.3,648,206.3,648.8,206.4,649.6z"/>
	<g>
		<circle fill-rule="evenodd" clip-rule="evenodd" fill="#F9B91A" cx="184.8" cy="320.1" r="85.7"/>
		<polygon fill-rule="evenodd" clip-rule="evenodd" fill="#F9B91A" points="75.7,208.1 93,193.5 124.2,239.8 114.8,248.2 		"/>
		<polygon fill-rule="evenodd" clip-rule="evenodd" fill="#F9B91A" points="204.2,164.7 226.5,168.6 211.1,222.3 198.7,220.5 		"/>
		<polygon fill-rule="evenodd" clip-rule="evenodd" fill="#F9B91A" points="323.1,240.6 332.9,261 280.3,279.8 274.5,268.7 		"/>
		<polygon fill-rule="evenodd" clip-rule="evenodd" fill="#F9B91A" points="333,380.5 322.4,400.5 276.2,369.1 281.8,357.8 		"/>
		<polygon fill-rule="evenodd" clip-rule="evenodd" fill="#F9B91A" points="237.2,470.2 215.7,477 204.6,422.3 216.5,418.1 		"/>
		<polygon fill-rule="evenodd" clip-rule="evenodd" fill="#F9B91A" points="101.4,453.5 82.4,441.1 117.8,397.9 128.5,404.4 		"/>
		<polygon fill-rule="evenodd" clip-rule="evenodd" fill="#F9B91A" points="29,339.3 26.6,316.8 82.5,316.8 84.2,329.2 		"/>
		
			<rect x="151.3" y="167" transform="matrix(0.9538 -0.3004 0.3004 0.9538 -51.6238 55.4851)" fill-rule="evenodd" clip-rule="evenodd" fill="#F9B91A" width="6.6" height="57.3"/>
		
			<rect x="262.6" y="189.4" transform="matrix(0.8007 0.599 -0.599 0.8007 183.58 -115.8038)" fill-rule="evenodd" clip-rule="evenodd" fill="#F9B91A" width="6.6" height="57.3"/>
		
			<rect x="300.4" y="138.7" transform="matrix(0.8006 0.5991 -0.5991 0.8006 160.8008 -148.6137)" fill-rule="evenodd" clip-rule="evenodd" fill="#F9B91A" width="6.6" height="57.3"/>
		
			<rect x="314.5" y="292" transform="matrix(1.493811e-002 0.9999 -0.9999 1.493811e-002 633.623 -1.8606)" fill-rule="evenodd" clip-rule="evenodd" fill="#F9B91A" width="6.6" height="57.3"/>
		
			<rect x="377.7" y="291" transform="matrix(1.495051e-002 0.9999 -0.9999 1.495051e-002 694.9473 -66.1252)" fill-rule="evenodd" clip-rule="evenodd" fill="#F9B91A" width="6.6" height="57.3"/>
		
			<rect x="265.2" y="394.6" transform="matrix(-0.7781 0.6282 -0.6282 -0.7781 743.2211 583.9672)" fill-rule="evenodd" clip-rule="evenodd" fill="#F9B91A" width="6.6" height="57.3"/>
		
			<rect x="305" y="443.8" transform="matrix(-0.778 0.6283 -0.6283 -0.778 844.9272 646.381)" fill-rule="evenodd" clip-rule="evenodd" fill="#F9B91A" width="6.6" height="57.3"/>
		<polygon fill-rule="evenodd" clip-rule="evenodd" fill="#F9B91A" points="159.2,420.9 165.6,422.2 153.6,478.2 147.1,476.8 		"/>
		<polygon fill-rule="evenodd" clip-rule="evenodd" fill="#F9B91A" points="90,361.5 93.2,367.2 43,394.8 39.8,389.1 		"/>
		<polygon fill-rule="evenodd" clip-rule="evenodd" fill="#F9B91A" points="93.4,275.2 90.4,281.1 39.6,254.6 42.6,248.8 		"/>
	</g>
	<g>
		<path fill-rule="evenodd" clip-rule="evenodd" fill="#F9BAB9" d="M1166,387.8c-0.3,0-0.5,0-0.8,0c0.1-5.2,0.2-10.4,0.2-15.6
			c0-3.5-0.2-7.1-0.2-10.6c0.3,0,0.5,0,0.8,0C1166,370.4,1166,379.1,1166,387.8z"/>
		<path fill-rule="evenodd" clip-rule="evenodd" fill="#ED2024" d="M1165.2,361.6c0.1,3.5,0.2,7.1,0.2,10.6c0,5.2-0.2,10.4-0.2,15.6
			c0,0.6-0.1,1.2-0.1,1.9c-0.4,1.2-0.8,2.5-0.5,3.8c-1.2,18.7-5.5,36.7-11.6,54.3c-11.1,32.3-28.4,61.1-49.9,87.5
			c-24.7,30.4-53.6,56.3-85.4,79.1c-45,32.4-93.9,57.7-145.3,78.4c-46.2,18.6-93.8,32.9-142.4,43.8c-29.8,6.7-59.8,11.9-90.1,15.9
			c-23.6,3.1-47.3,5.5-71.1,7c-17.5,1.1-35,1.8-52.5,2.1c-14.1,0.2-28.3,0.2-42.4-0.1c-13.7-0.3-27.3-1-41-1.8
			c-15.3-1-30.6-2.2-45.8-3.9c-16.5-1.8-33-4-49.4-6.7c-16.4-2.7-32.7-5.5-48.9-9.1c-29.1-6.4-58-13.9-86.3-23.3
			c-20.2-6.7-40.1-14.2-59.6-22.7c-18.3-8-36.3-16.7-53.7-26.4c-1.1-0.6-2.2-1.1-3.4-1.6c0.1-0.6,0.7-0.4,1.1-0.6
			c1.4,0.3,2.8,0.4,4.1,0.9c6.9,2.6,14.1,3.9,20.9,6.5c0.2,0.7,0.9,0.8,1.4,1.1c13.7,6,27.5,11.7,41.5,16.9
			c16.5,6.1,33.1,11.7,50,16.6c30.1,8.8,60.6,15.9,91.4,21.6c17.6,3.2,35.2,6,53,8.1c10.4,1.2,20.9,2.5,31.3,3.4
			c17.5,1.6,35,2.8,52.5,3.5c12.5,0.5,24.9,0.9,37.4,1c18.8,0.1,37.6-0.3,56.4-1.1c15.8-0.7,31.5-1.7,47.3-3.1
			c22.1-1.9,44.1-4.6,66-7.9c34.6-5.2,69-12.1,102.9-20.9c52.3-13.5,103.1-31.1,152-54c45.6-21.4,88.7-47,127.8-79.1
			c30.9-25.4,58.3-54.1,79.8-88.1c20.9-33.1,34.5-68.7,37.6-108c1.6-20.7,0.2-41.1-4.4-61.3c-6.7-29.5-19.5-56.4-36.8-81.1
			c-21.7-31-48.7-56.6-79.1-78.9c-36.6-26.9-76.4-47.8-118.4-65c-27.4-11.2-55.4-20.5-83.8-28.3c-14.5-4-29.2-7.6-43.9-10.8
			c-16-3.5-32-6.6-48.2-9.1c-12-1.9-24.1-3.7-36.1-5.2c-14.9-1.9-29.9-3.3-44.8-4.5c-16.2-1.3-32.5-2.3-48.8-2.7
			c-3.3-0.8-6.6-0.3-9.9-0.4c-4.6-0.4-9.2-0.8-13.8-1.2c11.7-0.3,23.4-0.4,35,0c9.2,0.3,18.5,0.6,27.7,1.1
			c12.7,0.7,25.4,1.6,38.1,2.7c11.2,1,22.3,2.3,33.5,3.5c9.7,1.1,19.3,2.5,28.9,4c11.3,1.8,22.6,3.7,33.8,5.9
			c12.2,2.4,24.4,5,36.6,7.8c17.1,4,34.1,8.6,50.9,13.7c45.2,13.8,88.8,31.3,130.1,54.3c34.3,19,66.2,41.3,94.6,68.6
			c20.2,19.4,38,40.9,52.2,65.1c11.9,20.3,20.9,41.8,26.3,64.7c0.1,0.2,0.2,0.4,0.3,0.7c0.1,0.3,0.2,0.7,0.2,1
			c0.1,0.3,0.1,0.6,0.2,0.9c-0.1,0.5-0.1,1.1,0.3,1.5c0.1,0.5,0.2,0.9,0.3,1.4c-0.2,0.5-0.1,0.9,0.3,1.3c0.3,1.8,0.7,3.6,1,5.4
			c-0.2,0.7-0.1,1.4,0.3,2c0,0.5,0.1,0.9,0.1,1.4c-0.2,0.6,0,1,0.3,1.5c0.1,0.6,0.1,1.2,0.2,1.8c-0.2,0.6-0.1,1,0.3,1.5
			c0.1,0.8,0.2,1.5,0.3,2.3c-0.2,0.5-0.2,1,0.2,1.5c0.1,0.6,0.1,1.2,0.2,1.8c-0.2,1,0,2,0.2,2.9c0.1,0.8,0.2,1.5,0.3,2.3
			c-0.2,0.5-0.1,1,0.1,1.5C1165.1,359.5,1165.2,360.5,1165.2,361.6z"/>
		<path fill-rule="evenodd" clip-rule="evenodd" fill="#154A8F" d="M595.8,35.9c16.3,0.4,32.5,1.4,48.8,2.7
			c15,1.2,29.9,2.6,44.8,4.5c12.1,1.5,24.1,3.4,36.1,5.2c16.2,2.5,32.2,5.6,48.2,9.1c14.7,3.2,29.4,6.8,43.9,10.8
			c28.5,7.8,56.5,17.1,83.8,28.3c41.9,17.1,81.8,38.1,118.4,65c30.3,22.3,57.4,48,79.1,78.9c17.3,24.7,30.1,51.6,36.8,81.1
			c4.6,20.2,6,40.6,4.4,61.3c-3.1,39.3-16.7,74.9-37.6,108c-21.5,34-48.9,62.7-79.8,88.1c-39,32.1-82.1,57.6-127.8,79.1
			c-48.9,23-99.7,40.5-152,54c-33.9,8.8-68.2,15.7-102.9,20.9c-21.9,3.3-43.9,6-66,7.9c-15.7,1.4-31.5,2.4-47.3,3.1
			c-18.8,0.8-37.6,1.2-56.4,1.1c-12.5-0.1-24.9-0.5-37.4-1c-17.5-0.7-35-1.9-52.5-3.5c-10.5-1-20.9-2.2-31.3-3.4
			c-17.7-2.1-35.4-4.9-53-8.1c-30.8-5.6-61.3-12.7-91.4-21.6c-16.8-5-33.5-10.5-50-16.6c-14-5.2-27.8-10.9-41.5-16.9
			c-0.6-0.2-1.3-0.3-1.4-1.1c8,1.7,15.9,3.9,23.9,5.8c9.7,2.4,19.5,4.5,29.3,6.7c0.4,0.5,1,0.6,1.6,0.4l0,0c2,1.4,4.5,1.7,6.8,2.5
			c8,2.6,16.2,4.9,24.3,7.1c16.1,4.4,32.3,8.4,48.7,11.8c13.8,2.9,27.6,5.6,41.5,7.8c7.4,1.2,14.7,2.6,22.1,3.5
			c11.1,1.3,22.2,2.9,33.3,4c10.3,1.1,20.7,2.1,31,3.1c10.5,1,21.1,1.4,31.6,2c9.2,0.5,18.4,0.8,27.7,0.9
			c16.6,0.2,33.2,0.3,49.8-0.1c11.8-0.3,23.6-0.9,35.4-1.6c11-0.6,22-1.5,33-2.4c9.7-0.8,19.4-1.8,29.1-2.8
			c11.7-1.2,23.3-2.8,34.9-4.5c13.5-2,26.9-4.3,40.3-6.7c9.5-1.7,19-3.7,28.4-5.8c14.2-3.1,28.4-6.4,42.5-10.2
			c17.7-4.7,35.2-9.8,52.6-15.4c11.9-3.9,23.7-8.1,35.5-12.5c18.5-6.8,36.6-14.4,54.5-22.5c15.9-7.3,31.4-15.2,46.7-23.7
			c18.3-10.1,36.1-21.1,53.3-33.1c23.7-16.5,45.8-34.9,66-55.6c7.5-7.7,14.7-15.7,21.4-24c13.4-16.5,25.2-34.2,34.6-53.3
			c7.6-15.5,13.6-31.6,17.7-48.4c3.4-14.2,5.2-28.5,5.6-43.1c0.2-7.5-0.1-15-0.9-22.5c-1-10.6-2.8-21.1-5.6-31.4
			c-4.6-17.4-11.5-33.9-20.2-49.7c-11.7-21.1-26.3-39.9-43-57.2c-11.2-11.6-23.3-22.3-35.9-32.3c-21.6-17.1-44.8-31.8-69-44.9
			c-13.8-7.4-27.9-14.2-42.2-20.5C879.9,96.2,861,89,841.9,82.5c-11.1-3.8-22.4-7.3-33.7-10.5c-9.8-2.8-19.6-5.4-29.5-7.9
			c-12.6-3.1-25.3-6-38.1-8.5c-8.7-1.7-17.5-3.4-26.2-4.9c-9.9-1.7-19.7-3.2-29.6-4.6c-8-1.1-15.9-2.1-23.9-3
			c-6.6-0.8-13.1-1.6-19.7-2.2c-5.5-0.4-11-1.4-16.5-1.2c-7.1-0.8-14.3-1.6-21.4-2.5l-0.1-0.1l-0.1,0.1c-1.1-0.1-2.1-0.3-3.2-0.4
			c-0.7-0.6-1.4-0.4-2.2-0.3c-0.7-0.1-1.4-0.2-2.1-0.2C595.7,36.3,595.8,36.1,595.8,35.9z"/>
		<path fill-rule="evenodd" clip-rule="evenodd" fill="#53B1D7" d="M768,72.3c-10.5-3.1-21-6.2-31.5-9.2c-11-3.1-22.1-6.1-33.4-8.5
			c-0.8-0.2-1.7-0.3-2.4-0.9c0.6-0.7,1.3-0.5,2-0.4c15.5,3,31,6,46.4,9.6c10.7,2.6,21.4,5.3,32,8.2c15,4.1,29.8,8.7,44.5,13.7
			c11.3,3.9,22.5,8,33.5,12.5c11.3,4.6,22.6,9.4,33.6,14.6c9.5,4.5,18.8,9.3,28.1,14.2c13,7,25.7,14.5,38,22.7
			c12.7,8.4,25,17.4,36.6,27.3c9.6,8.2,19,16.6,27.7,25.8c8.6,9,16.6,18.5,24.1,28.5c8.3,11.2,15.6,23,21.8,35.5
			c5.5,11.1,9.9,22.7,13.4,34.6c3.8,13.3,6.3,26.8,7,40.6c0.5,8.4,0.5,16.9-0.3,25.3c-0.6,7-1.3,14-2.6,20.8
			c-3.7,20.2-10.3,39.5-19.5,57.8c-6.8,13.6-14.8,26.6-23.8,38.9c-7.9,10.8-16.3,21.1-25.4,30.8c-8.5,9-17.3,17.8-26.7,26
			c-7.1,6.2-14.3,12.4-21.8,18.2c-11.7,9.2-23.9,17.8-36.4,25.9c-15,9.8-30.5,18.8-46.2,27.3c-12.1,6.5-24.5,12.6-36.9,18.3
			c-15,6.9-30.2,13.3-45.5,19.4c-10.2,4-20.5,7.8-30.9,11.3c-15.6,5.2-31.3,10.3-47.1,14.7c-20.6,5.7-41.2,11.2-62,15.6
			c-14.8,3.2-29.7,6.2-44.7,8.7c-10.5,1.8-21.1,3.4-31.7,4.9c-8.8,1.3-17.6,2.2-26.4,3.5c-7.2,1.1-14.6,1.2-21.8,2.1
			c-10.1,1.2-20.2,1.8-30.3,2.7c-8.2,0.7-16.5,1.1-24.8,1.5c-9.6,0.4-19.2,0.9-28.9,0.9c-16.9,0-33.8,0.3-50.7-0.3
			c-13.2-0.4-26.3-1-39.5-1.6c-4.6-0.2-9.1-0.6-13.7-1c-6.6-0.6-13.2-1.2-19.7-1.8c-5.5-0.5-11-0.8-16.4-1.6
			c-6.8-1-13.6-1.7-20.3-2.6c-7.6-1-15.1-2-22.6-3.1c-8.9-1.3-17.8-3-26.7-4.7c-1.2-0.2-2.8,0.3-3.6-1.1c4-0.3,7.8,0.6,11.7,0.9
			c6.8,0.6,13.5,1.3,20.3,1.8c11.3,0.8,22.5,1.6,33.8,2.2c7.3,0.4,14.7,0.4,22,0.7c14.4,0.5,28.7,0.5,43.1,0.2
			c18.2-0.3,36.4-1.1,54.6-2.3c19.6-1.4,39.2-3.2,58.6-5.7c15.5-1.9,30.9-4.3,46.3-6.8c3.7-0.6,7.3-1.1,11-1.7
			c0.4,0.6,0.7,0.4,1-0.1c1.7-0.5,3.4-0.9,5.1-0.8c0.3,0.3,0.6,0.5,1.1,0.4c9.3-1.3,18.6-2.3,27.8-3.9c10.8-1.8,21.6-3.4,32.3-5.5
			c9.9-2,19.9-3.6,29.8-5.8c8.6-1.9,17.2-3.9,25.8-5.9c9.6-2.3,19.2-4.9,28.8-7.3c10.2-2.6,20.1-5.8,30.2-8.8
			c15.2-4.7,30.4-9.6,45.3-15.2c14.5-5.5,29-11.1,43.2-17.4c11.1-4.9,22-9.9,32.9-15.2c8.6-4.2,17-8.7,25.4-13.3
			c12.7-7,25.2-14.4,37.4-22.3c14.3-9.3,28.1-19.2,41.4-29.9c9.3-7.5,18.3-15.2,26.9-23.4c8.4-8,16.4-16.4,24-25.2
			c9-10.4,17.2-21.3,24.7-32.8c8.8-13.5,16.2-27.8,22.1-42.8c4.8-12.1,8.3-24.6,10.7-37.4c1.9-10.4,3-20.9,3-31.5
			c0-3.8-0.1-7.6-0.3-11.3c-0.5-8.4-1.4-16.8-3.1-25c-3.2-15.6-8.3-30.6-15.2-44.9c-5.4-11.2-11.7-21.8-18.8-32
			c-7.2-10.2-15-19.9-23.6-28.9c-8.3-8.8-17-17.1-26.2-25c-9.9-8.4-20.2-16.3-30.9-23.8c-14.1-9.8-28.7-18.6-43.7-26.9
			c-15.1-8.3-30.6-15.7-46.4-22.6c-13.2-5.7-26.6-10.8-40.1-15.7c-13-4.7-26.2-8.8-39.4-12.8c-1.6-0.5-3.2-1.5-5.1-1.1
			c-0.3-0.1-0.6-0.1-0.9-0.2C769,72.2,768.6,72,768,72.3z"/>
		<path fill-rule="evenodd" clip-rule="evenodd" fill="#1B98D2" d="M242.6,698c0.8,1.5,2.4,0.9,3.6,1.1c8.9,1.7,17.8,3.4,26.7,4.7
			c7.5,1.1,15.1,2.2,22.6,3.1c6.8,0.9,13.6,1.6,20.3,2.6c5.4,0.8,11,1.1,16.4,1.6c6.6,0.6,13.1,1.3,19.7,1.8c4.5,0.4,9.1,0.8,13.7,1
			c13.2,0.6,26.3,1.2,39.5,1.6c16.9,0.5,33.8,0.2,50.7,0.3c9.6,0,19.2-0.5,28.9-0.9c8.3-0.4,16.5-0.7,24.8-1.5
			c10.1-0.9,20.2-1.5,30.3-2.7c7.3-0.9,14.6-1,21.8-2.1c8.8-1.3,17.6-2.3,26.4-3.5c10.6-1.5,21.1-3.2,31.7-4.9
			c15-2.5,29.8-5.6,44.7-8.7c20.9-4.4,41.5-9.9,62-15.6c15.9-4.4,31.5-9.5,47.1-14.7c10.4-3.5,20.7-7.2,30.9-11.3
			c15.3-6.1,30.5-12.4,45.5-19.4c12.5-5.8,24.8-11.8,36.9-18.3c15.8-8.5,31.3-17.5,46.2-27.3c12.5-8.2,24.7-16.7,36.4-25.9
			c7.4-5.8,14.6-12,21.8-18.2c9.3-8.2,18.1-17,26.7-26c9.2-9.7,17.5-20,25.4-30.8c9-12.3,17-25.2,23.8-38.9
			c9.2-18.4,15.8-37.6,19.5-57.8c1.3-6.9,2-13.8,2.6-20.8c0.7-8.5,0.7-16.9,0.3-25.3c-0.8-13.8-3.2-27.3-7-40.6
			c-3.5-11.9-7.9-23.5-13.4-34.6c-6.2-12.4-13.4-24.3-21.8-35.5c-7.5-10-15.5-19.5-24.1-28.5c-8.7-9.2-18.1-17.6-27.7-25.8
			c-11.6-9.9-23.9-18.8-36.6-27.3c-12.3-8.2-25-15.7-38-22.7c-9.3-5-18.6-9.7-28.1-14.2c-11.1-5.2-22.3-10-33.6-14.6
			c-11-4.5-22.2-8.6-33.5-12.5c-14.7-5-29.5-9.6-44.5-13.7c-10.6-2.9-21.3-5.6-32-8.2c-15.4-3.7-30.9-6.7-46.4-9.6
			c-0.7-0.1-1.4-0.3-2,0.4c-0.3,0-0.6-0.1-0.9-0.1c-0.3-1-0.8-1.1-1.5-0.4c-0.3,0-0.6-0.1-0.9-0.1c-0.3-1.1-1-0.9-1.7-0.6
			c-9.9-1.9-19.9-3.8-29.8-5.7c-11.5-2.2-23.1-4-34.7-5.8c-2.2-0.3-4.4-0.3-6.5-1.1c5.5-0.3,11,0.7,16.5,1.2
			c6.6,0.5,13.2,1.4,19.7,2.2c8,1,16,1.9,23.9,3c9.9,1.4,19.8,2.9,29.6,4.6c8.8,1.5,17.5,3.2,26.2,4.9c12.8,2.5,25.4,5.4,38.1,8.5
			c9.9,2.4,19.7,5.1,29.5,7.9c11.3,3.3,22.5,6.7,33.7,10.5c19.1,6.5,38,13.7,56.5,21.9c14.3,6.3,28.4,13.1,42.2,20.5
			c24.2,13.1,47.4,27.8,69,44.9c12.6,10,24.7,20.7,35.9,32.3c16.6,17.3,31.3,36.2,43,57.2c8.8,15.8,15.6,32.3,20.2,49.7
			c2.7,10.3,4.5,20.8,5.6,31.4c0.7,7.5,1.1,15,0.9,22.5c-0.5,14.5-2.2,28.9-5.6,43.1c-4.1,16.8-10,32.9-17.7,48.4
			c-9.4,19.1-21.2,36.8-34.6,53.3c-6.8,8.3-13.9,16.3-21.4,24c-20.1,20.8-42.3,39.1-66,55.6c-17.2,12-34.9,23-53.3,33.1
			c-15.3,8.4-30.9,16.4-46.7,23.7c-17.9,8.2-36,15.7-54.5,22.5c-11.8,4.4-23.6,8.6-35.5,12.5c-17.4,5.6-35,10.7-52.6,15.4
			c-14.1,3.7-28.3,7.1-42.5,10.2c-9.5,2.1-18.9,4.1-28.4,5.8c-13.4,2.4-26.8,4.7-40.3,6.7c-11.6,1.7-23.2,3.3-34.9,4.5
			c-9.7,1-19.4,2-29.1,2.8c-11,0.9-22,1.8-33,2.4c-11.8,0.7-23.6,1.2-35.4,1.6c-16.6,0.5-33.2,0.3-49.8,0.1
			c-9.2-0.1-18.5-0.5-27.7-0.9c-10.5-0.5-21.1-1-31.6-2c-10.3-0.9-20.7-2-31-3.1c-11.1-1.2-22.2-2.7-33.3-4
			c-7.4-0.9-14.8-2.4-22.1-3.5c-13.9-2.2-27.7-4.9-41.5-7.8c-16.4-3.4-32.6-7.4-48.7-11.8c-8.1-2.2-16.3-4.5-24.3-7.1
			c-2.3-0.7-4.8-1-6.8-2.5c7.3,1.3,14.6,2.7,21.9,3.9c10.1,1.6,20.2,3.4,30.4,4.7c7.3,0.9,14.5,2.2,21.7,3.3c0.3,0.5,0.6,0.8,1,0.1
			C242,697.9,242.3,697.9,242.6,698z"/>
		<path fill-rule="evenodd" clip-rule="evenodd" fill="#93C3DD" d="M770.1,73c1.9-0.5,3.5,0.6,5.1,1.1c13.2,4,26.4,8.1,39.4,12.8
			c13.5,4.9,26.9,10,40.1,15.7c15.8,6.9,31.3,14.3,46.4,22.6c15,8.2,29.7,17.1,43.7,26.9c10.7,7.4,21,15.3,30.9,23.8
			c9.2,7.8,18,16.2,26.2,25c8.5,9.1,16.4,18.7,23.6,28.9c7.1,10.2,13.5,20.8,18.8,32c6.9,14.4,12,29.3,15.2,44.9
			c1.7,8.2,2.6,16.6,3.1,25c0.2,3.8,0.3,7.6,0.3,11.3c0,10.6-1.1,21.1-3,31.5c-2.3,12.8-5.9,25.3-10.7,37.4
			c-5.9,15-13.3,29.3-22.1,42.8c-7.5,11.5-15.7,22.5-24.7,32.8c-7.6,8.8-15.6,17.2-24,25.2c-8.6,8.2-17.6,16-26.9,23.4
			c-13.3,10.7-27.1,20.6-41.4,29.9c-12.2,7.9-24.7,15.3-37.4,22.3c-8.4,4.6-16.8,9.1-25.4,13.3c-10.9,5.3-21.8,10.3-32.9,15.2
			c-14.2,6.3-28.7,12-43.2,17.4c-14.9,5.6-30.1,10.5-45.3,15.2c-10,3.1-20,6.3-30.2,8.8c-9.6,2.4-19.2,5.1-28.8,7.3
			c-8.6,2-17.2,4-25.8,5.9c-9.9,2.2-19.9,3.8-29.8,5.8c-10.7,2.2-21.5,3.7-32.3,5.5c-9.2,1.6-18.5,2.6-27.8,3.9
			c-0.4,0.1-0.8-0.1-1.1-0.4c3.5-1.6,7.3-1.6,10.9-2.4c7.6-1.7,15.2-3.4,22.8-4.9c10.2-2,20.2-4.6,30.3-7.1
			c7.2-1.7,14.3-3.7,21.4-5.7c13.6-3.8,27.1-7.8,40.4-12.3c15.1-5.1,30.1-10.4,45.1-15.6c1-0.4,2.1-0.7,3.1-1.1
			c0.8-0.2,1.7-0.4,2.5-0.6c15.5-5.4,30.8-11.2,46-17.5c13.5-5.6,26.9-11.4,40-17.8c16.5-8,32.7-16.5,48.5-25.8
			c13.4-7.8,26.4-16.1,39.1-25c9.9-6.9,19.6-14.3,29-22c11.5-9.5,22.5-19.5,33-30.2c6.8-6.9,13.2-14,19.4-21.4
			c7.2-8.5,13.8-17.5,19.8-26.8c8.8-13.6,16.3-27.9,22.4-43c7.8-19.5,12.5-39.7,13.7-60.6c0.6-11,0.3-22.1-1.2-33.1
			c-1.6-11.6-4.2-22.9-7.8-34c-3.9-11.6-8.8-22.8-14.8-33.5c-6.5-11.7-13.9-22.8-22.3-33.1c-7.9-9.7-16.3-18.9-25.3-27.5
			c-7.2-6.9-14.6-13.5-22.4-19.7c-10.6-8.5-21.6-16.4-33-23.8c-1.3-0.8-2.4-2.1-4.1-2.3l0,0c-0.2-0.7-0.7-1-1.4-0.9
			c-15.4-9.9-30.9-19.7-47.1-28.2c-19.2-10.1-38.9-19.1-59.2-27c-9.3-3.6-18.6-6.9-28-10.3C770.7,73.5,770.4,73.2,770.1,73z"/>
		<path fill-rule="evenodd" clip-rule="evenodd" fill="#CADDE5" d="M906.8,140c1.7,0.2,2.8,1.4,4.1,2.3c11.4,7.3,22.4,15.3,33,23.8
			c7.7,6.2,15.1,12.9,22.4,19.7c9.1,8.6,17.5,17.8,25.3,27.5c8.4,10.4,15.8,21.4,22.3,33.1c6,10.7,10.9,21.9,14.8,33.5
			c3.7,11.1,6.2,22.4,7.8,34c1.5,11,1.8,22.1,1.2,33.1c-1.2,20.9-5.9,41.1-13.7,60.6c-6,15.1-13.5,29.4-22.4,43
			c-6,9.3-12.6,18.3-19.8,26.8c-6.2,7.4-12.6,14.5-19.4,21.4c-10.5,10.6-21.4,20.7-33,30.2c-9.4,7.7-19,15.1-29,22
			c-12.7,8.8-25.7,17.2-39.1,25c-15.8,9.3-32,17.8-48.5,25.8c-13.2,6.3-26.5,12.2-40,17.8c-15.2,6.2-30.5,12-46,17.5
			c-0.8,0.3-1.7,0.4-2.5,0.6c1.5-1.7,3.8-1.8,5.7-2.6c7.1-3,14.3-5.7,21.3-8.8c8.2-3.5,16.4-7.1,24.4-11c10.2-5,20.3-10.1,30.4-15.4
			c8-4.2,16-8.5,23.8-13.1c6.3-3.7,12.5-7.6,18.8-11.5c6.7-4.2,13.2-8.6,19.9-12.9c5.4-3.5,10.2-7.9,15.6-11.3
			c9-5.8,16.9-13.1,25.2-19.9c6.5-5.3,12.7-11.1,18.8-16.9c5.9-5.7,11.8-11.4,17.4-17.5c5.7-6.2,11.3-12.4,16.5-19
			c7.5-9.6,14.8-19.3,21.3-29.7c6-9.6,11.4-19.5,16.2-29.8c5-10.8,9.2-21.9,12.5-33.3c2.5-8.7,4.4-17.5,5.7-26.4
			c1-7.1,1.7-14.1,2.1-21.3c0.4-7.3,0.2-14.5-0.2-21.7c-0.5-8.1-1.7-16.1-3.4-24c-1.8-8.1-3.9-16.2-6.7-24.1
			c-4.1-11.9-9.4-23.2-15.6-34.1c-5.3-9.3-11-18.1-17.6-26.5c-3.2-4.1-6.2-8.6-9.8-12.4c-4.8-5.1-9.4-10.3-14.3-15.3
			c-8.7-8.7-17.9-16.8-27.4-24.6c-5.1-4.2-10.3-8.3-15.8-12C908.3,141.7,907.2,141.2,906.8,140z"/>
		<path fill-rule="evenodd" clip-rule="evenodd" fill="#F8AEAD" d="M86.9,665.5c-0.4,0.1-0.9,0-1.1,0.6c-1.9,0.1-2.7-1.5-3.9-2.4
			C83.9,663.4,85.8,663.5,86.9,665.5z"/>
		<path fill-rule="evenodd" clip-rule="evenodd" fill="#795076" d="M595.8,35.9c-0.1,0.2-0.1,0.3-0.2,0.5c-3.3-0.2-6.5-0.3-9.7-0.9
			C589.2,35.6,592.5,35.2,595.8,35.9z"/>
		<path fill-rule="evenodd" clip-rule="evenodd" fill="#F9BAB9" d="M1164.6,393.5c-0.3-1.3,0.1-2.6,0.5-3.8
			C1165.5,391,1166.2,392.4,1164.6,393.5z"/>
		<path fill-rule="evenodd" clip-rule="evenodd" fill="#F9BAB9" d="M1164.6,354.6c-0.2-1-0.5-1.9-0.2-2.9
			C1165.3,352.5,1165.1,353.5,1164.6,354.6z"/>
		<path fill-rule="evenodd" clip-rule="evenodd" fill="#F9BAB9" d="M1162.8,339.8c-0.4-0.6-0.5-1.2-0.3-2
			C1163.3,338.4,1163.3,339.1,1162.8,339.8z"/>
		<path fill-rule="evenodd" clip-rule="evenodd" fill="#795076" d="M597.7,36.6c0.8-0.2,1.5-0.4,2.2,0.3
			C599.1,37.1,598.4,37,597.7,36.6z"/>
		<path fill-rule="evenodd" clip-rule="evenodd" fill="#53B1D7" d="M695.7,52.4c0.7-0.3,1.4-0.5,1.7,0.6
			C696.8,53.2,696.2,53,695.7,52.4z"/>
		<path fill-rule="evenodd" clip-rule="evenodd" fill="#53B1D7" d="M698.4,53.1c0.7-0.7,1.2-0.6,1.5,0.4
			C699.3,53.6,698.8,53.6,698.4,53.1z"/>
		<path fill-rule="evenodd" clip-rule="evenodd" fill="#F9BAB9" d="M1160.9,329.9c-0.4-0.4-0.5-0.9-0.3-1.5
			C1161.3,328.7,1161.4,329.2,1160.9,329.9z"/>
		<path fill-rule="evenodd" clip-rule="evenodd" fill="#F9BAB9" d="M1163.2,342.7c-0.3-0.4-0.5-0.9-0.3-1.5
			C1163.7,341.6,1163.8,342,1163.2,342.7z"/>
		<path fill-rule="evenodd" clip-rule="evenodd" fill="#F9BAB9" d="M1163.7,346c-0.4-0.4-0.5-0.9-0.3-1.5
			C1164.1,344.9,1164.3,345.4,1163.7,346z"/>
		<path fill-rule="evenodd" clip-rule="evenodd" fill="#F9BAB9" d="M1164.2,349.8c-0.4-0.5-0.4-1-0.2-1.5
			C1164.6,348.7,1164.8,349.2,1164.2,349.8z"/>
		<path fill-rule="evenodd" clip-rule="evenodd" fill="#F9BAB9" d="M1165.1,358.4c-0.2-0.5-0.4-1-0.1-1.5
			C1165.6,357.3,1165.6,357.8,1165.1,358.4z"/>
		<path fill-rule="evenodd" clip-rule="evenodd" fill="#CADDE5" d="M905.3,139c0.7,0,1.2,0.3,1.4,0.9C906.1,140,905.4,140,905.3,139
			z"/>
		<path fill-rule="evenodd" clip-rule="evenodd" fill="#93C3DD" d="M768,72.3c0.6-0.2,1-0.1,1.2,0.6C768.6,73.1,768.2,72.8,768,72.3
			z"/>
		<path fill-rule="evenodd" clip-rule="evenodd" fill="#F9BAB9" d="M1160.4,327.5c-0.1-0.3-0.2-0.7-0.2-1
			C1160.7,326.7,1160.9,327,1160.4,327.5z"/>
		<path fill-rule="evenodd" clip-rule="evenodd" fill="#F9BAB9" d="M1161.4,332.5c-0.4-0.4-0.5-0.8-0.3-1.3
			C1161.6,331.6,1161.8,332,1161.4,332.5z"/>
		<path fill-rule="evenodd" clip-rule="evenodd" fill="#93C3DD" d="M545.1,687.2c-0.3,0.5-0.6,0.8-1,0.1
			C544.4,686.9,544.7,686.9,545.1,687.2z"/>
		<path fill-rule="evenodd" clip-rule="evenodd" fill="#53B1D7" d="M241.7,697.8c-0.4,0.6-0.7,0.3-1-0.1
			C241,697.4,241.4,697.4,241.7,697.8z"/>
		<path fill-rule="evenodd" clip-rule="evenodd" fill="#1B98D2" d="M166.7,685.9c-0.6,0.2-1.1,0.1-1.6-0.4
			C165.7,685.4,166.3,685.3,166.7,685.9z"/>
		<polygon fill-rule="evenodd" clip-rule="evenodd" fill="#795076" points="603.1,37.3 603.2,37.2 603.3,37.3 		"/>
	</g>
</g>
</svg>
